<?xml version="1.0" standalone="no"?>
<!DOCTYPE svg PUBLIC "-//W3C//DTD SVG 20010904//EN"
 "http://www.w3.org/TR/2001/REC-SVG-20010904/DTD/svg10.dtd">
<svg version="1.0" xmlns="http://www.w3.org/2000/svg"
 width="512.000000pt" height="512.000000pt" viewBox="0 0 512.000000 512.000000"
 preserveAspectRatio="xMidYMid meet">

<g transform="translate(0.000000,512.000000) scale(0.100000,-0.100000)"
fill="#fff" stroke="none">
<path d="M1877 5105 c-328 -62 -600 -260 -752 -548 -92 -174 -125 -330 -125
-600 l0 -169 -34 -40 c-66 -77 -81 -121 -81 -238 0 -112 11 -147 72 -227 53
-69 183 -133 272 -133 l36 0 17 -73 c10 -39 39 -115 64 -167 39 -79 62 -110
141 -189 l94 -95 -3 -94 -3 -93 -505 -198 c-278 -108 -534 -213 -569 -231
-134 -72 -269 -239 -328 -405 l-28 -80 -3 -690 -2 -690 23 -40 c12 -21 42 -53
65 -70 l44 -30 542 -3 c536 -3 542 -2 564 18 30 28 30 82 0 110 -21 19 -34 20
-255 20 l-233 0 0 659 c0 651 0 659 -21 685 -26 33 -79 36 -109 6 -19 -19 -20
-33 -20 -280 l0 -260 -226 0 -225 0 3 273 c3 253 5 276 25 331 47 123 133 233
238 302 36 24 598 254 620 254 1 0 23 -37 49 -82 165 -294 461 -470 811 -484
l120 -4 5 -458 c5 -444 6 -458 27 -504 l22 -48 -51 0 c-73 0 -133 -31 -170
-89 -27 -43 -29 -51 -26 -126 3 -57 10 -93 26 -124 12 -25 22 -46 22 -48 0 -2
-80 -3 -178 -3 -166 0 -180 -1 -200 -20 -30 -28 -30 -82 0 -110 l22 -20 1536
2 1535 3 57 27 c121 56 190 159 196 293 3 75 1 83 -26 126 -37 57 -97 89 -169
89 l-51 0 24 58 24 57 0 766 c0 854 3 821 -69 915 -23 31 -59 60 -101 83 l-65
36 -1007 3 -1008 2 0 87 0 86 65 59 c89 82 170 207 212 327 18 53 33 104 33
114 0 13 9 17 38 17 107 0 228 67 290 160 51 76 66 132 60 227 -5 85 -33 153
-87 215 l-28 33 -6 215 c-4 186 -9 228 -30 311 -51 197 -131 341 -265 481
-142 147 -307 245 -500 295 -124 32 -319 40 -435 18z m398 -163 c327 -90 570
-332 652 -651 18 -72 26 -134 30 -247 3 -84 4 -158 1 -165 -4 -10 -20 -13 -56
-11 l-50 4 -7 44 c-3 24 -22 75 -41 112 -99 198 -330 283 -536 197 -119 -50
-149 -57 -233 -52 -64 3 -98 12 -169 41 -103 44 -194 55 -277 36 -161 -37
-288 -165 -321 -322 l-12 -56 -53 -4 -53 -3 0 122 c0 156 14 255 52 370 70
213 247 415 454 521 58 30 158 62 239 78 95 18 288 11 380 -14z m-466 -866
c129 -51 170 -59 274 -54 79 4 106 10 187 44 80 33 106 39 165 39 105 0 179
-43 233 -135 l27 -45 0 -385 c0 -369 -1 -388 -22 -455 -79 -250 -301 -427
-566 -451 -245 -22 -504 115 -617 327 -75 141 -74 133 -78 556 -3 375 -3 382
19 433 27 62 95 125 158 144 74 23 123 19 220 -18z m-549 -566 l0 -210 -32 0
c-69 1 -156 61 -184 127 -8 18 -14 59 -14 92 0 50 5 66 33 107 37 56 102 94
159 94 l38 0 0 -210z m1732 174 c79 -56 112 -175 72 -260 -32 -68 -119 -124
-191 -124 l-23 0 0 211 0 212 51 -5 c34 -4 64 -15 91 -34z m-1034 -1195 c109
-14 216 -6 327 26 47 14 87 25 90 25 3 0 5 -22 5 -48 0 -47 -1 -49 -42 -67
-55 -24 -118 -88 -148 -150 -19 -41 -25 -70 -28 -156 l-4 -107 -30 -6 c-91
-18 -246 13 -336 67 -61 36 -143 121 -171 176 l-19 36 41 20 c65 32 81 63 85
159 l4 82 69 -23 c38 -12 109 -28 157 -34z m2565 -193 c43 -17 95 -78 102
-118 3 -18 5 -369 3 -779 l-3 -746 -28 -36 c-59 -78 31 -72 -1127 -72 -1158 0
-1068 -6 -1127 72 l-28 36 -3 746 c-2 410 0 761 3 779 7 39 58 100 100 118 45
20 2061 20 2108 0z m-3025 -133 c78 -131 205 -230 357 -280 65 -21 101 -26
192 -27 l113 -1 0 -71 c0 -83 -1 -84 -90 -84 -86 0 -222 27 -310 61 -165 63
-328 204 -403 347 l-37 70 62 25 c35 14 66 26 69 26 4 1 25 -29 47 -66z m-758
-1683 l0 -330 -206 0 c-122 0 -213 4 -225 10 -18 10 -19 25 -19 330 l0 320
225 0 225 0 0 -330z m4078 -102 c7 -7 12 -30 12 -53 0 -59 -42 -119 -104 -150
l-50 -25 -1206 0 -1206 0 -50 25 c-62 31 -104 91 -104 150 0 23 5 46 12 53 17
17 2679 17 2696 0z"/>
<path d="M2635 2083 c-39 -10 -84 -53 -95 -91 -6 -23 -10 -233 -10 -570 0
-576 0 -571 55 -622 l27 -25 858 0 858 0 27 25 c49 45 55 74 55 274 0 197 -6
226 -47 245 -34 16 -47 14 -77 -10 l-26 -20 0 -185 0 -184 -790 0 -790 0 2
508 3 507 785 0 785 0 5 -188 c5 -172 7 -190 24 -203 28 -20 69 -17 97 5 23
19 24 23 27 209 4 223 -3 259 -55 299 l-36 28 -831 1 c-457 1 -840 0 -851 -3z"/>
<path d="M3561 1773 c-22 -19 -301 -606 -301 -634 0 -9 9 -28 21 -43 26 -33
81 -36 106 -6 26 30 292 602 293 628 0 30 -42 72 -73 72 -14 0 -34 -8 -46 -17z"/>
<path d="M2948 1583 c-65 -65 -121 -127 -124 -139 -3 -12 1 -35 9 -50 22 -41
207 -221 240 -233 32 -12 80 6 91 34 16 44 5 66 -76 150 l-81 85 81 84 c91 93
100 119 57 161 -45 46 -67 36 -197 -92z"/>
<path d="M3795 1675 c-43 -42 -34 -68 57 -161 l81 -84 -81 -85 c-81 -84 -92
-106 -76 -150 9 -23 61 -47 87 -39 28 8 224 200 244 238 8 15 12 38 9 50 -3
12 -59 74 -124 139 -130 128 -152 138 -197 92z"/>
</g>
</svg>
