<?xml version="1.0" encoding="UTF-8" standalone="no"?><!DOCTYPE svg PUBLIC "-//W3C//DTD SVG 1.1//EN" "http://www.w3.org/Graphics/SVG/1.1/DTD/svg11.dtd"><svg xmlns="http://www.w3.org/2000/svg" version="1.1" viewBox="0.00 0.00 629.00 222.00" width="629.00" height="222.00"><ellipse fill="#8e3577" cx="0.00" cy="0.00" transform="translate(206.59,37.17) rotate(-0.5)" rx="23.53" ry="20.46"/><path fill="#8e3577" d=" M 131.89 67.86 C 123.46 58.53 110.10 52.32 97.72 52.52 Q 94.03 52.58 97.58 51.58 C 123.55 44.28 155.14 41.38 179.83 55.15 C 195.19 63.71 205.08 80.16 203.35 97.99 C 199.06 142.21 151.31 174.25 113.08 186.35 Q 111.99 186.69 112.80 185.88 C 128.31 170.45 139.78 150.76 144.50 129.26 C 149.20 107.85 147.10 84.71 131.89 67.86 Z"/><path fill="#eebc3a" d=" M 269.00 54.19 Q 271.73 53.60 272.05 56.47 C 272.36 59.17 270.87 61.39 270.38 63.23 C 268.32 71.01 264.39 77.28 261.45 84.64 C 260.24 87.66 258.38 90.32 257.14 93.15 Q 255.97 95.82 254.84 97.58 C 250.23 104.72 245.79 112.56 241.01 118.93 C 233.88 128.43 226.19 137.51 217.46 145.59 C 215.01 147.86 213.34 150.78 210.90 152.86 C 205.44 157.53 200.05 163.03 194.88 167.18 Q 166.56 189.88 134.81 207.55 Q 133.31 208.38 131.61 208.84 Q 131.12 208.97 130.86 208.53 Q 129.59 206.29 126.95 206.08 A 0.58 0.57 -78.6 0 1 126.45 205.32 C 128.02 200.70 130.56 200.14 133.62 197.01 Q 135.28 195.30 136.34 194.51 C 144.72 188.25 155.54 181.85 162.22 177.14 Q 184.82 161.18 205.38 141.13 Q 209.82 136.80 212.18 133.70 C 216.03 128.65 220.73 124.74 224.65 119.36 C 228.56 113.98 232.64 109.26 236.50 104.07 C 238.58 101.28 241.56 99.64 243.51 96.74 C 252.06 83.99 259.24 72.53 262.55 58.38 C 263.23 55.46 264.62 53.16 266.07 50.78 Q 267.12 49.04 267.61 51.01 L 268.28 53.74 Q 268.42 54.31 269.00 54.19 Z M 265.5862 66.9772 A 0.33 0.33 0.0 0 0 265.4327 66.5365 L 264.8025 66.2318 A 0.33 0.33 0.0 0 0 264.3617 66.3853 L 254.1338 87.5428 A 0.33 0.33 0.0 0 0 254.2873 87.9835 L 254.9175 88.2882 A 0.33 0.33 0.0 0 0 255.3583 88.1347 L 265.5862 66.9772 Z"/><path fill="#8e3577" d=" M 243.70 162.19 Q 244.28 161.78 244.31 160.85 Q 244.40 158.42 244.29 156.20 Q 244.19 154.37 246.02 154.39 L 247.93 154.41 Q 249.67 154.43 249.67 156.18 L 249.78 195.85 Q 249.78 197.23 248.40 197.25 L 245.73 197.29 A 1.29 1.29 0.0 0 1 244.42 195.98 L 244.49 191.25 A 1.14 1.14 0.0 0 0 242.58 190.39 C 234.90 197.48 222.19 199.16 212.84 194.64 C 199.53 188.20 195.28 171.30 207.04 161.04 C 217.29 152.11 233.00 152.46 242.69 162.11 A 0.78 0.78 0.0 0 0 243.70 162.19 Z M 244.8941 176.5401 A 19.65 17.42 1.4 0 0 225.6756 158.6452 A 19.65 17.42 1.4 0 0 205.6059 175.5799 A 19.65 17.42 1.4 0 0 224.8244 193.4748 A 19.65 17.42 1.4 0 0 244.8941 176.5401 Z"/><path fill="#8e3577" d=" M 348.09 190.20 A 1.24 1.22 27.0 0 0 347.24 190.47 C 338.37 197.65 326.19 199.45 316.09 193.98 C 296.91 183.60 303.75 158.79 323.69 155.13 C 331.36 153.72 340.25 155.21 346.05 160.77 Q 348.95 163.55 348.89 159.53 L 348.83 155.52 A 1.12 1.11 0.3 0 1 349.98 154.39 L 352.98 154.47 Q 354.32 154.50 354.32 155.85 L 354.16 195.72 Q 354.16 197.10 352.78 197.11 L 350.31 197.13 Q 349.01 197.14 349.00 195.83 Q 349.00 193.84 349.07 191.52 Q 349.10 190.29 348.09 190.20 Z M 349.4057 176.3903 A 19.59 17.37 1.2 0 0 330.1838 158.6138 A 19.59 17.37 1.2 0 0 310.2343 175.5697 A 19.59 17.37 1.2 0 0 329.4562 193.3462 A 19.59 17.37 1.2 0 0 349.4057 176.3903 Z"/><path fill="#8e3577" d=" M 367.74 189.88 Q 366.60 189.98 366.59 191.25 Q 366.49 200.67 366.47 210.73 A 1.53 1.53 0.0 0 1 364.95 212.26 L 362.54 212.27 Q 361.04 212.28 361.04 210.78 L 361.00 155.93 Q 360.99 154.09 362.82 154.23 L 364.82 154.38 Q 366.62 154.52 366.62 156.31 L 366.63 159.75 Q 366.64 164.26 369.57 160.64 Q 371.29 158.52 375.25 156.84 C 386.65 152.01 399.92 154.86 407.32 164.95 C 412.88 172.52 411.47 182.89 404.89 189.41 Q 395.27 198.96 381.47 196.88 Q 373.88 195.74 368.64 190.22 A 1.11 1.09 65.3 0 0 367.74 189.88 Z M 405.2089 175.7944 A 19.63 17.35 -0.6 0 0 385.3983 158.6510 A 19.63 17.35 -0.6 0 0 365.9511 176.2056 A 19.63 17.35 -0.6 0 0 385.7617 193.3490 A 19.63 17.35 -0.6 0 0 405.2089 175.7944 Z"/><path fill="#8e3577" d=" M 262.50 161.51 Q 262.81 161.85 263.52 161.76 Q 264.40 161.65 265.58 160.33 C 271.46 153.78 284.41 152.88 291.40 157.85 C 296.39 161.40 297.44 166.51 297.60 172.91 Q 297.86 183.82 297.68 195.27 Q 297.65 197.19 295.73 197.23 L 294.46 197.26 Q 292.45 197.30 292.43 195.29 Q 292.30 182.78 292.35 170.51 C 292.41 153.75 268.86 155.93 263.71 168.05 Q 262.25 171.48 262.21 181.12 Q 262.17 188.28 262.13 195.32 Q 262.12 197.11 260.33 197.18 L 258.31 197.25 Q 256.55 197.32 256.55 195.56 L 256.59 156.20 Q 256.59 154.48 258.30 154.47 L 260.45 154.45 Q 262.22 154.44 262.18 156.20 L 262.10 160.00 A 2.32 1.18 -78.0 0 0 262.50 161.51 Z"/><path fill="#8e3577" d=" M 423.68 176.59 C 422.02 183.81 429.16 190.69 435.37 192.43 C 444.08 194.87 453.92 192.51 459.47 184.74 Q 460.53 183.25 462.15 184.11 L 463.41 184.79 Q 465.05 185.67 463.86 187.09 C 456.23 196.21 447.39 197.91 436.26 196.69 C 426.98 195.66 418.48 186.69 417.58 177.58 C 416.30 164.55 428.55 154.53 440.86 154.42 C 453.49 154.30 465.28 160.99 466.80 174.53 Q 466.95 175.88 465.59 175.88 L 424.51 175.93 A 0.85 0.85 0.0 0 0 423.68 176.59 Z M 430.09 162.56 C 427.72 164.21 424.30 168.21 424.53 171.57 Q 424.56 172.01 425.00 172.01 L 458.80 172.04 A 1.38 1.37 79.2 0 0 460.07 170.16 C 455.34 158.15 440.22 155.48 430.09 162.56 Z"/><path fill="#8e3577" d=" M 509.43 191.66 Q 512.60 190.50 516.19 187.28 Q 517.76 185.89 519.48 187.08 L 520.15 187.55 Q 521.75 188.67 520.27 189.95 C 512.96 196.27 503.63 197.88 494.23 196.62 Q 484.07 195.26 477.31 187.20 C 472.91 181.96 471.99 173.93 475.37 167.81 C 484.00 152.22 508.13 150.18 520.66 162.16 Q 522.04 163.48 520.36 164.39 L 519.51 164.85 Q 517.88 165.74 516.49 164.51 C 507.58 156.63 492.89 155.77 483.76 164.51 Q 478.47 169.58 479.10 177.02 C 480.36 191.80 497.62 195.97 509.43 191.66 Z"/></svg>