<svg version="1.2" xmlns="http://www.w3.org/2000/svg" viewBox="0 0 479 524" width="479" height="524">
	<title>2474684-ai</title>
	<defs>
		<clipPath clipPathUnits="userSpaceOnUse" id="cp1">
			<path d="m-443.89-167.21c0-17.84 14.47-32.3 32.31-32.3h1253.47c17.84 0 32.31 14.46 32.31 32.3v814.12c0 17.84-14.47 32.3-32.31 32.3h-1253.47c-17.84 0-32.31-14.46-32.31-32.3z"/>
		</clipPath>
		<linearGradient id="g1" x2="1" gradientUnits="userSpaceOnUse" gradientTransform="matrix(15.676,-43,43,15.676,210.286,272.286)">
			<stop offset="0" stop-color="#e59dfb"/>
			<stop offset=".077" stop-color="#da18f9"/>
			<stop offset=".323" stop-color="#5c00f9"/>
			<stop offset="1" stop-color="#330072"/>
		</linearGradient>
		<linearGradient id="g2" x2="1" gradientUnits="userSpaceOnUse" gradientTransform="matrix(27.553,-75.58,75.58,27.553,188.058,282.637)">
			<stop offset="0" stop-color="#e59dfb"/>
			<stop offset=".077" stop-color="#da18f9"/>
			<stop offset=".323" stop-color="#5c00f9"/>
			<stop offset="1" stop-color="#330072"/>
		</linearGradient>
		<linearGradient id="g3" x2="1" gradientUnits="userSpaceOnUse" gradientTransform="matrix(39.43,-108.159,108.159,39.43,165.829,292.988)">
			<stop offset="0" stop-color="#e59dfb"/>
			<stop offset=".077" stop-color="#da18f9"/>
			<stop offset=".323" stop-color="#5c00f9"/>
			<stop offset="1" stop-color="#330072"/>
		</linearGradient>
		<linearGradient id="g4" x2="1" gradientUnits="userSpaceOnUse" gradientTransform="matrix(51.308,-140.739,140.739,51.308,143.601,303.34)">
			<stop offset="0" stop-color="#e59dfb"/>
			<stop offset=".077" stop-color="#da18f9"/>
			<stop offset=".323" stop-color="#5c00f9"/>
			<stop offset="1" stop-color="#330072"/>
		</linearGradient>
		<linearGradient id="g5" x2="1" gradientUnits="userSpaceOnUse" gradientTransform="matrix(63.185,-173.319,173.319,63.185,121.372,313.691)">
			<stop offset="0" stop-color="#e59dfb"/>
			<stop offset=".077" stop-color="#da18f9"/>
			<stop offset=".323" stop-color="#5c00f9"/>
			<stop offset="1" stop-color="#330072"/>
		</linearGradient>
		<linearGradient id="g6" x2="1" gradientUnits="userSpaceOnUse" gradientTransform="matrix(75.062,-205.899,205.899,75.062,99.143,324.042)">
			<stop offset="0" stop-color="#e59dfb"/>
			<stop offset=".077" stop-color="#da18f9"/>
			<stop offset=".323" stop-color="#5c00f9"/>
			<stop offset="1" stop-color="#330072"/>
		</linearGradient>
		<linearGradient id="g7" x2="1" gradientUnits="userSpaceOnUse" gradientTransform="matrix(86.939,-238.478,238.478,86.939,76.915,334.393)">
			<stop offset="0" stop-color="#e59dfb"/>
			<stop offset=".077" stop-color="#da18f9"/>
			<stop offset=".323" stop-color="#5c00f9"/>
			<stop offset="1" stop-color="#330072"/>
		</linearGradient>
		<linearGradient id="g8" x2="1" gradientUnits="userSpaceOnUse" gradientTransform="matrix(98.817,-271.058,271.058,98.817,54.687,344.745)">
			<stop offset="0" stop-color="#e59dfb"/>
			<stop offset=".077" stop-color="#da18f9"/>
			<stop offset=".323" stop-color="#5c00f9"/>
			<stop offset="1" stop-color="#330072"/>
		</linearGradient>
		<linearGradient id="g9" x2="1" gradientUnits="userSpaceOnUse" gradientTransform="matrix(110.694,-303.638,303.638,110.694,32.458,355.096)">
			<stop offset="0" stop-color="#e59dfb"/>
			<stop offset=".077" stop-color="#da18f9"/>
			<stop offset=".323" stop-color="#5c00f9"/>
			<stop offset="1" stop-color="#330072"/>
		</linearGradient>
		<linearGradient id="g10" x2="1" gradientUnits="userSpaceOnUse" gradientTransform="matrix(122.571,-336.217,336.218,122.571,10.23,365.447)">
			<stop offset="0" stop-color="#e59dfb"/>
			<stop offset=".077" stop-color="#da18f9"/>
			<stop offset=".323" stop-color="#5c00f9"/>
			<stop offset="1" stop-color="#330072"/>
		</linearGradient>
		<linearGradient id="g11" x2="1" gradientUnits="userSpaceOnUse" gradientTransform="matrix(134.449,-368.797,368.797,134.449,-11.999,375.798)">
			<stop offset="0" stop-color="#e59dfb"/>
			<stop offset=".077" stop-color="#da18f9"/>
			<stop offset=".323" stop-color="#5c00f9"/>
			<stop offset="1" stop-color="#330072"/>
		</linearGradient>
		<linearGradient id="g12" x2="1" gradientUnits="userSpaceOnUse" gradientTransform="matrix(146.326,-401.377,401.377,146.326,-34.227,386.15)">
			<stop offset="0" stop-color="#e59dfb"/>
			<stop offset=".077" stop-color="#da18f9"/>
			<stop offset=".323" stop-color="#5c00f9"/>
			<stop offset="1" stop-color="#330072"/>
		</linearGradient>
	</defs>
	<style>
		tspan { white-space:pre } 
		.s0 { fill: none;stroke: url(#g1);stroke-linecap: round;stroke-linejoin: round;stroke-width: 5.2 } 
		.s1 { fill: none;stroke: url(#g2);stroke-linecap: round;stroke-linejoin: round;stroke-width: 4.8 } 
		.s2 { fill: none;stroke: url(#g3);stroke-linecap: round;stroke-linejoin: round;stroke-width: 4.3 } 
		.s3 { fill: none;stroke: url(#g4);stroke-linecap: round;stroke-linejoin: round;stroke-width: 3.9 } 
		.s4 { fill: none;stroke: url(#g5);stroke-linecap: round;stroke-linejoin: round;stroke-width: 3.5 } 
		.s5 { fill: none;stroke: url(#g6);stroke-linecap: round;stroke-linejoin: round;stroke-width: 3.1 } 
		.s6 { fill: none;stroke: url(#g7);stroke-linecap: round;stroke-linejoin: round;stroke-width: 2.6 } 
		.s7 { fill: none;stroke: url(#g8);stroke-linecap: round;stroke-linejoin: round;stroke-width: 2.2 } 
		.s8 { fill: none;stroke: url(#g9);stroke-linecap: round;stroke-linejoin: round;stroke-width: 1.8 } 
		.s9 { fill: none;stroke: url(#g10);stroke-linecap: round;stroke-linejoin: round;stroke-width: 1.4 } 
		.s10 { fill: none;stroke: url(#g11);stroke-linecap: round;stroke-linejoin: round;stroke-width: .9 } 
		.s11 { fill: none;stroke: url(#g12);stroke-linecap: round;stroke-linejoin: round;stroke-width: .5 } 
	</style>
	<g id="OBJECTS">
		<g id="&lt;Group&gt;">
			<g id="&lt;Clip Group&gt;" clip-path="url(#cp1)">
				<g id="&lt;Group&gt;">
					<g id="&lt;Group&gt;">
						<path id="&lt;Path&gt;" class="s0" d="m247.5 237.1c11.8 4.4 18 17.5 13.6 29.4-4.3 11.8-17.4 18-29.3 13.6-11.9-4.3-18-17.4-13.7-29.3 4.4-11.9 17.5-18 29.4-13.7z"/>
						<path id="&lt;Path&gt;" class="s1" d="m253.4 220.8c20.9 7.6 31.6 30.7 24 51.6-7.6 20.9-30.7 31.6-51.6 24-20.8-7.6-31.6-30.7-24-51.6 7.6-20.8 30.7-31.6 51.6-24z"/>
						<path id="&lt;Path&gt;" class="s2" d="m259.3 204.5c29.9 10.9 45.3 44 34.4 73.8-10.9 29.9-43.9 45.3-73.8 34.4-29.9-10.9-45.2-43.9-34.4-73.8 10.9-29.9 44-45.2 73.8-34.4z"/>
						<path id="&lt;Path&gt;" class="s3" d="m265.3 188.3c38.8 14.1 58.9 57.1 44.7 96-14.2 38.8-57.2 58.9-96 44.7-38.9-14.2-58.9-57.2-44.7-96 14.1-38.9 57.1-58.9 96-44.7z"/>
						<path id="&lt;Path&gt;" class="s4" d="m271.2 172c47.9 17.4 72.5 70.4 55.1 118.2-17.5 47.9-70.4 72.5-118.3 55.1-47.8-17.5-72.5-70.4-55-118.3 17.4-47.8 70.4-72.5 118.2-55z"/>
						<path id="&lt;Path&gt;" class="s5" d="m277.2 155.7c56.8 20.7 86.1 83.6 65.4 140.5-20.8 56.8-83.6 86.1-140.5 65.4-56.9-20.8-86.2-83.6-65.4-140.5 20.7-56.9 83.6-86.2 140.5-65.4z"/>
						<path id="&lt;Path&gt;" class="s6" d="m283.1 139.4c65.8 24 99.8 96.8 75.8 162.7-24 65.8-96.9 99.8-162.7 75.8-65.9-24-99.8-96.9-75.8-162.7 24-65.9 96.8-99.8 162.7-75.8z"/>
						<path id="&lt;Path&gt;" class="s7" d="m289 123.1c74.9 27.3 113.4 110.1 86.2 184.9-27.3 74.9-110.1 113.4-185 86.2-74.8-27.3-113.4-110.1-86.1-185 27.3-74.8 110.1-113.4 184.9-86.1z"/>
						<path id="&lt;Path&gt;" class="s8" d="m295 106.8c83.8 30.6 127 123.3 96.4 207.2-30.5 83.8-123.3 127-207.1 96.4-83.9-30.5-127.1-123.3-96.5-207.1 30.6-83.9 123.3-127.1 207.2-96.5z"/>
						<path id="&lt;Path&gt;" class="s9" d="m300.9 90.5c92.9 33.9 140.7 136.6 106.8 229.4-33.8 92.9-136.5 140.7-229.4 106.8-92.8-33.8-140.6-136.5-106.8-229.4 33.9-92.8 136.6-140.6 229.4-106.8z"/>
						<path id="&lt;Path&gt;" class="s10" d="m306.8 74.2c101.9 37.2 154.3 149.8 117.2 251.6-37.1 101.9-149.8 154.3-251.6 117.2-101.8-37.1-154.3-149.8-117.2-251.6 37.2-101.8 149.8-154.3 251.6-117.2z"/>
						<path id="&lt;Path&gt;" class="s11" d="m312.8 57.9c110.8 40.4 167.9 163 127.5 273.9-40.4 110.8-163 167.9-273.8 127.5-110.9-40.4-168-163-127.6-273.8 40.4-110.9 163-168 273.9-127.6z"/>
					</g>
				</g>
			</g>
		</g>
	</g>
</svg>