<svg version="1.2" xmlns="http://www.w3.org/2000/svg" viewBox="0 0 830 673" width="830" height="673">
	<title>2474684-ai</title>
	<defs>
		<clipPath clipPathUnits="userSpaceOnUse" id="cp1">
			<path d="m-92.89-18.21c0-17.84 14.47-32.3 32.31-32.3h1253.47c17.84 0 32.31 14.46 32.31 32.3v814.12c0 17.84-14.47 32.3-32.31 32.3h-1253.47c-17.84 0-32.31-14.46-32.31-32.3z"/>
		</clipPath>
		<linearGradient id="g1" x2="1" gradientUnits="userSpaceOnUse" gradientTransform="matrix(-59.841,-9.787,9.787,-59.842,454.071,370.858)">
			<stop offset="0" stop-color="#e59dfb"/>
			<stop offset=".246" stop-color="#da18f9"/>
			<stop offset=".661" stop-color="#5c00f9"/>
			<stop offset="1" stop-color="#330072"/>
		</linearGradient>
		<linearGradient id="g2" x2="1" gradientUnits="userSpaceOnUse" gradientTransform="matrix(-105.182,-17.202,17.202,-105.182,473.034,397.236)">
			<stop offset="0" stop-color="#e59dfb"/>
			<stop offset=".246" stop-color="#da18f9"/>
			<stop offset=".661" stop-color="#5c00f9"/>
			<stop offset="1" stop-color="#330072"/>
		</linearGradient>
		<linearGradient id="g3" x2="1" gradientUnits="userSpaceOnUse" gradientTransform="matrix(-150.522,-24.618,24.618,-150.522,491.996,423.614)">
			<stop offset="0" stop-color="#e59dfb"/>
			<stop offset=".246" stop-color="#da18f9"/>
			<stop offset=".661" stop-color="#5c00f9"/>
			<stop offset="1" stop-color="#330072"/>
		</linearGradient>
		<linearGradient id="g4" x2="1" gradientUnits="userSpaceOnUse" gradientTransform="matrix(-195.862,-32.033,32.033,-195.862,510.959,449.992)">
			<stop offset="0" stop-color="#e59dfb"/>
			<stop offset=".246" stop-color="#da18f9"/>
			<stop offset=".661" stop-color="#5c00f9"/>
			<stop offset="1" stop-color="#330072"/>
		</linearGradient>
		<linearGradient id="g5" x2="1" gradientUnits="userSpaceOnUse" gradientTransform="matrix(-241.203,-39.448,39.448,-241.203,529.921,476.369)">
			<stop offset="0" stop-color="#e59dfb"/>
			<stop offset=".246" stop-color="#da18f9"/>
			<stop offset=".661" stop-color="#5c00f9"/>
			<stop offset="1" stop-color="#330072"/>
		</linearGradient>
		<linearGradient id="g6" x2="1" gradientUnits="userSpaceOnUse" gradientTransform="matrix(-286.543,-46.864,46.864,-286.543,548.884,502.747)">
			<stop offset="0" stop-color="#e59dfb"/>
			<stop offset=".246" stop-color="#da18f9"/>
			<stop offset=".661" stop-color="#5c00f9"/>
			<stop offset="1" stop-color="#330072"/>
		</linearGradient>
		<linearGradient id="g7" x2="1" gradientUnits="userSpaceOnUse" gradientTransform="matrix(-331.883,-54.279,54.279,-331.883,567.846,529.125)">
			<stop offset="0" stop-color="#e59dfb"/>
			<stop offset=".246" stop-color="#da18f9"/>
			<stop offset=".661" stop-color="#5c00f9"/>
			<stop offset="1" stop-color="#330072"/>
		</linearGradient>
		<linearGradient id="g8" x2="1" gradientUnits="userSpaceOnUse" gradientTransform="matrix(-377.223,-61.694,61.694,-377.223,586.809,555.503)">
			<stop offset="0" stop-color="#e59dfb"/>
			<stop offset=".246" stop-color="#da18f9"/>
			<stop offset=".661" stop-color="#5c00f9"/>
			<stop offset="1" stop-color="#330072"/>
		</linearGradient>
		<linearGradient id="g9" x2="1" gradientUnits="userSpaceOnUse" gradientTransform="matrix(-422.564,-69.11,69.11,-422.564,605.771,581.881)">
			<stop offset="0" stop-color="#e59dfb"/>
			<stop offset=".246" stop-color="#da18f9"/>
			<stop offset=".661" stop-color="#5c00f9"/>
			<stop offset="1" stop-color="#330072"/>
		</linearGradient>
		<linearGradient id="g10" x2="1" gradientUnits="userSpaceOnUse" gradientTransform="matrix(-467.904,-76.525,76.525,-467.904,624.734,608.258)">
			<stop offset="0" stop-color="#e59dfb"/>
			<stop offset=".246" stop-color="#da18f9"/>
			<stop offset=".661" stop-color="#5c00f9"/>
			<stop offset="1" stop-color="#330072"/>
		</linearGradient>
		<linearGradient id="g11" x2="1" gradientUnits="userSpaceOnUse" gradientTransform="matrix(-513.244,-83.94,83.94,-513.244,643.696,634.636)">
			<stop offset="0" stop-color="#e59dfb"/>
			<stop offset=".246" stop-color="#da18f9"/>
			<stop offset=".661" stop-color="#5c00f9"/>
			<stop offset="1" stop-color="#330072"/>
		</linearGradient>
		<linearGradient id="g12" x2="1" gradientUnits="userSpaceOnUse" gradientTransform="matrix(-558.584,-91.356,91.356,-558.584,662.658,661.014)">
			<stop offset="0" stop-color="#e59dfb"/>
			<stop offset=".246" stop-color="#da18f9"/>
			<stop offset=".661" stop-color="#5c00f9"/>
			<stop offset="1" stop-color="#330072"/>
		</linearGradient>
	</defs>
	<style>
		tspan { white-space:pre } 
		.s0 { fill: none;stroke: url(#g1);stroke-linecap: round;stroke-linejoin: round;stroke-width: 8.1 } 
		.s1 { fill: none;stroke: url(#g2);stroke-linecap: round;stroke-linejoin: round;stroke-width: 7.5 } 
		.s2 { fill: none;stroke: url(#g3);stroke-linecap: round;stroke-linejoin: round;stroke-width: 6.8 } 
		.s3 { fill: none;stroke: url(#g4);stroke-linecap: round;stroke-linejoin: round;stroke-width: 6.1 } 
		.s4 { fill: none;stroke: url(#g5);stroke-linecap: round;stroke-linejoin: round;stroke-width: 5.4 } 
		.s5 { fill: none;stroke: url(#g6);stroke-linecap: round;stroke-linejoin: round;stroke-width: 4.8 } 
		.s6 { fill: none;stroke: url(#g7);stroke-linecap: round;stroke-linejoin: round;stroke-width: 4.1 } 
		.s7 { fill: none;stroke: url(#g8);stroke-linecap: round;stroke-linejoin: round;stroke-width: 3.4 } 
		.s8 { fill: none;stroke: url(#g9);stroke-linecap: round;stroke-linejoin: round;stroke-width: 2.7 } 
		.s9 { fill: none;stroke: url(#g10);stroke-linecap: round;stroke-linejoin: round;stroke-width: 2 } 
		.s10 { fill: none;stroke: url(#g11);stroke-linecap: round;stroke-linejoin: round;stroke-width: 1.4 } 
		.s11 { fill: none;stroke: url(#g12);stroke-linecap: round;stroke-linejoin: round;stroke-width: .7 } 
	</style>
	<g id="OBJECTS">
		<g id="&lt;Group&gt;">
			<g id="&lt;Clip Group&gt;" clip-path="url(#cp1)">
				<g id="&lt;Group&gt;">
					<g id="&lt;Group&gt;">
						<path id="&lt;Path&gt;" class="s0" d="m399.1 331.2c2.7-16.6 18.3-27.8 34.8-25.1 16.6 2.7 27.8 18.3 25.1 34.8-2.7 16.6-18.3 27.8-34.8 25.1-16.6-2.7-27.8-18.3-25.1-34.8z"/>
						<path id="&lt;Path&gt;" class="s1" d="m376.5 327.4c4.7-29 32.1-48.7 61.1-43.9 29.1 4.7 48.8 32.1 44 61.1-4.7 29.1-32.1 48.8-61.2 44-29-4.7-48.7-32.1-43.9-61.2z"/>
						<path id="&lt;Path&gt;" class="s2" d="m353.8 323.7c6.8-41.5 46-69.7 87.6-62.9 41.5 6.8 69.7 46 62.9 87.6-6.8 41.5-46 69.7-87.6 62.9-41.5-6.8-69.7-46-62.9-87.6z"/>
						<path id="&lt;Path&gt;" class="s3" d="m331.1 320c8.9-54.1 59.9-90.7 114-81.9 54 8.9 90.7 59.9 81.9 114-8.9 54-59.9 90.7-114 81.9-54.1-8.9-90.7-59.9-81.9-114z"/>
						<path id="&lt;Path&gt;" class="s4" d="m308.4 316.3c10.9-66.6 73.8-111.8 140.4-100.9 66.6 10.9 111.7 73.8 100.8 140.4-10.8 66.6-73.7 111.7-140.3 100.8-66.6-10.8-111.8-73.7-100.9-140.3z"/>
						<path id="&lt;Path&gt;" class="s5" d="m285.8 312.6c12.9-79.1 87.5-132.8 166.7-119.8 79.1 12.9 132.8 87.5 119.8 166.7-12.9 79.1-87.6 132.8-166.7 119.8-79.1-12.9-132.8-87.6-119.8-166.7z"/>
						<path id="&lt;Path&gt;" class="s6" d="m263.1 308.9c15-91.6 101.4-153.8 193.1-138.8 91.6 15 153.8 101.4 138.8 193.1-15 91.6-101.4 153.8-193.1 138.8-91.6-15-153.8-101.4-138.8-193.1z"/>
						<path id="&lt;Path&gt;" class="s7" d="m240.4 305.2c17.1-104.2 115.3-174.8 219.5-157.8 104.2 17.1 174.8 115.3 157.8 219.5-17.1 104.2-115.3 174.8-219.5 157.8-104.2-17.1-174.8-115.3-157.8-219.5z"/>
						<path id="&lt;Path&gt;" class="s8" d="m217.8 301.5c19-116.7 129.1-195.8 245.8-176.7 116.7 19 195.8 129.1 176.7 245.8-19.1 116.7-129.1 195.8-245.8 176.7-116.7-19.1-195.8-129.1-176.7-245.8z"/>
						<path id="&lt;Path&gt;" class="s9" d="m195.1 297.8c21.1-129.2 143-216.8 272.2-195.7 129.2 21.1 216.8 143 195.7 272.2-21.1 129.2-143 216.8-272.2 195.7-129.2-21.1-216.8-143-195.7-272.2z"/>
						<path id="&lt;Path&gt;" class="s10" d="m172.4 294.1c23.2-141.8 156.9-237.9 298.6-214.7 141.7 23.2 237.8 156.9 214.7 298.6-23.2 141.7-156.9 237.8-298.6 214.7-141.8-23.2-237.9-156.9-214.7-298.6z"/>
						<path id="&lt;Path&gt;" class="s11" d="m149.8 290.4c25.2-154.3 170.7-258.9 324.9-233.6 154.3 25.2 258.9 170.7 233.6 324.9-25.2 154.3-170.7 258.9-324.9 233.6-154.3-25.2-258.9-170.7-233.6-324.9z"/>
					</g>
				</g>
			</g>
		</g>
	</g>
</svg>