<?xml version="1.0" encoding="UTF-8"?><svg id="Layer_2_copy" data-name="Layer 2 copy" xmlns="http://www.w3.org/2000/svg" viewBox="0 0 947 1065"><defs><style>.cls-1{ fill: #ff5400;} .cls-2{ fill: #fff;} .cls-3, .cls-4{ isolation: isolate;} .cls-4{ fill: #5650d3;} </style></defs><g class="cls-3"><path class="cls-4" d="m307.28,1047.69c-40.07,0-81.75-6.49-117.67-23.56-55.82-26.53-93.63-75.38-120.33-114.97-45.16-66.96-53.71-162.69-21.28-238.22,15.67-36.49,39.86-67.22,71.9-91.34,35.05-26.38,78.78-44.12,129.96-52.71,64.21-10.78,123.53-21.63,176.3-32.27,70.99-14.31,137.51-41.81,197.72-81.73,60.35-40.02,111.45-90.61,151.88-150.37C867.3,127.23,914.87-19.09,915.34-20.56l53.32,17.1c-2.01,6.27-50.32,155.17-146.51,297.34-44.55,65.84-100.84,121.58-167.32,165.66-66.27,43.94-139.48,74.21-217.6,89.96-53.37,10.76-113.29,21.73-178.1,32.6-79,13.26-134.21,51.61-159.67,110.91-12.78,29.75-17.56,63.79-13.83,98.44,3.45,32.06,14.13,62.74,30.08,86.38,22.72,33.69,54.38,75.01,97.94,95.71,44.05,20.93,112.83,24.06,175.23,7.97,66.71-17.2,116.84-50.87,121.59-54.13l81.27-62.44,27.54-21.98c31.11-24.83,64.54-46.58,99.36-64.63,33.08-17.15,59.88-28.64,79.65-34.14,62.6-17.41,130.54-15.84,196.48,4.55l-16.54,53.5c-55.66-17.21-112.69-18.62-164.93-4.1-15.82,4.4-39.64,14.74-68.88,29.9-31.59,16.38-61.94,36.12-90.2,58.68l-28.16,22.47-82.42,63.33-.44.31c-2.42,1.71-60.13,42.22-140.32,62.9-27.45,7.08-60.91,11.94-95.59,11.94Z"/></g><g><path class="cls-2" d="m921.51,742.37l6.82,15.96,4.67.56,1.78-14.94,6.13.73-4.45,37.34-12.9-1.54c-2.87-.34-5.23-1.13-7.1-2.37-1.87-1.24-3.19-2.76-3.98-4.56-.78-1.8-1.05-3.74-.8-5.82.29-2.44,1.26-4.56,2.91-6.38,1.65-1.82,3.99-2.91,7.01-3.28l-7.4-16.58,7.31.87Zm10.91,21.41l-6.77-.81c-2.29-.27-4.09.09-5.39,1.1s-2.07,2.48-2.3,4.41c-.23,1.93.16,3.52,1.18,4.75,1.02,1.23,2.69,1.98,5.02,2.26l6.77.81,1.49-12.52Z"/><path class="cls-2" d="m883.68,740.64l14.35,17,.2-16.83,6.17.07-.45,37.6-6.17-.08.21-17.15-14.82,16.98-7.74-.09,16.57-18.63-16.38-18.98,8.06.1Z"/><path class="cls-1" d="m850.53,769.74l-6.59-8.1,4.04-.47,4.41,5.43,2.83-6.27,3.73-.43-4.6,9.14,6.59,8.13-4.04.47-4.41-5.43-2.83,6.27-3.73.43,4.59-9.17Z"/><path class="cls-2" d="m765.49,773.58l14.52-6.09-.48-8.13,5.94-2.49,2.13,39.94-6.59,2.76-26.99-29.52,5.99-2.51,5.47,6.04Zm3.54,3.97l12.4,13.75-1.07-18.5-11.33,4.75Z"/><path class="cls-2" d="m729.99,782.04l14.45,9.62,4.21-2.1-6.7-13.47,5.52-2.75,16.74,33.68-11.63,5.78c-2.58,1.29-5,1.92-7.24,1.91-2.24-.01-4.19-.56-5.83-1.63-1.64-1.08-2.93-2.55-3.86-4.42-1.09-2.2-1.45-4.51-1.06-6.94.38-2.43,1.74-4.62,4.07-6.58l-15.27-9.81,6.59-3.28Zm20.86,11.93l-6.11,3.04c-2.07,1.03-3.37,2.32-3.9,3.88-.54,1.56-.37,3.21.5,4.95s2.06,2.85,3.59,3.32c1.52.47,3.34.19,5.43-.86l6.11-3.04-5.61-11.29Z"/><path class="cls-2" d="m697.79,799.43l20.94,7.51-8.27-14.66,5.37-3.03,18.47,32.76-5.37,3.03-8.42-14.94-4.3,22.12-6.74,3.8,4.99-24.43-23.69-8.2,7.02-3.96Z"/><path class="cls-1" d="m682.87,840.31l-9.53-4.27,3.4-2.24,6.38,2.87-.29-6.87,3.14-2.06v10.23s9.55,4.3,9.55,4.3l-3.4,2.24-6.38-2.87.29,6.87-3.14,2.06-.02-10.25Z"/><path class="cls-2" d="m606.07,874.19l12.33-9.8-2.66-7.7,5.04-4.01,12.88,37.87-5.59,4.44-33.98-21.1,5.08-4.04,6.9,4.33Zm4.49,2.86l15.66,9.88-6.04-17.52-9.62,7.64Z"/><path class="cls-2" d="m574.07,889.25l16.03,6.65,3.73-2.87-9.16-11.93,4.89-3.76,22.91,29.82-10.3,7.91c-2.29,1.76-4.53,2.85-6.74,3.27s-4.21.26-6.03-.48c-1.82-.74-3.37-1.94-4.64-3.6-1.5-1.95-2.29-4.15-2.38-6.6-.09-2.46.82-4.87,2.72-7.25l-16.88-6.69,5.84-4.48Zm22.76,7.69l-5.41,4.15c-1.83,1.41-2.86,2.92-3.09,4.55-.23,1.63.25,3.22,1.44,4.76,1.19,1.54,2.57,2.4,4.16,2.57,1.59.17,3.31-.46,5.17-1.89l5.41-4.15-7.68-10Z"/><path class="cls-2" d="m546.01,910.8l21.79,4.48-10.25-13.34,4.89-3.76,22.91,29.82-4.89,3.76-10.45-13.6-1.13,22.5-6.14,4.71,1.49-24.89-24.61-4.77,6.39-4.91Z"/><path class="cls-1" d="m535.47,952.64l-9.71-3.84,3.3-2.39,6.5,2.58-.6-6.85,3.04-2.2.46,10.22,9.73,3.86-3.3,2.39-6.5-2.58.6,6.85-3.04,2.2-.48-10.24Z"/><path class="cls-2" d="m453.03,976.54l14.35-6.48-.7-8.12,5.87-2.65,3.21,39.87-6.51,2.94-27.77-28.78,5.92-2.67,5.63,5.89Zm3.65,3.88l12.76,13.41-1.57-18.47-11.2,5.05Z"/><path class="cls-2" d="m418.29,981.66l13.21,11.26,4.43-1.58-5.05-14.17,5.81-2.07,12.63,35.42-12.23,4.36c-2.72.97-5.19,1.31-7.42,1.04-2.22-.28-4.09-1.05-5.59-2.31-1.5-1.26-2.61-2.88-3.31-4.85-.82-2.31-.9-4.65-.23-7.01.67-2.36,2.28-4.38,4.82-6.06l-14-11.55,6.93-2.47Zm19.29,14.32l-6.42,2.29c-2.17.77-3.62,1.9-4.34,3.38-.72,1.48-.75,3.14-.09,4.97s1.71,3.08,3.17,3.73c1.46.65,3.29.58,5.5-.21l6.42-2.29-4.23-11.88Z"/><path class="cls-2" d="m385.07,991.31l18.34,12.59-4.26-16.28,5.97-1.56,9.53,36.38-5.97,1.56-4.35-16.59-9.79,20.29-7.49,1.96,11.04-22.36-20.83-13.96,7.8-2.04Z"/><path class="cls-1" d="m357.09,1023.7l-6.8-7.92,4.03-.57,4.55,5.31,2.67-6.34,3.72-.53-4.35,9.26,6.81,7.95-4.03.57-4.55-5.31-2.67,6.34-3.72.53,4.35-9.29Z"/><path class="cls-2" d="m273.08,1006.04l15.68,1.4,3.38-7.41,6.41.57-16.76,36.32-7.11-.63-10.08-38.71,6.47.58,2.01,7.89Zm1.28,5.17l4.54,17.95,7.69-16.86-12.23-1.09Z"/><path class="cls-2" d="m241,992.37l5.1,16.59,4.59,1.05,3.34-14.67,6.01,1.37-8.35,36.67-12.66-2.88c-2.81-.64-5.08-1.68-6.81-3.11-1.73-1.43-2.89-3.08-3.48-4.96s-.65-3.83-.19-5.87c.54-2.39,1.73-4.41,3.57-6.04,1.83-1.64,4.27-2.48,7.32-2.52l-5.61-17.26,7.18,1.63Zm8.6,22.44l-6.65-1.51c-2.25-.51-4.08-.34-5.48.53-1.4.87-2.32,2.25-2.75,4.15s-.21,3.51.67,4.84c.88,1.33,2.46,2.25,4.75,2.78l6.65,1.51,2.8-12.29Z"/><path class="cls-2" d="m209.2,981.04l6.88,21.16,6.54-15.51,5.68,2.4-14.61,34.65-5.68-2.4,6.66-15.81-20.13,10.13-7.13-3.01,22.37-11-8.01-23.75,7.43,3.13Z"/><path class="cls-1" d="m166.9,986.56l.54-10.43,3.31,2.36-.37,6.98,6.3-2.75,3.06,2.18-9.54,3.7-.56,10.45-3.31-2.36.37-6.98-6.3,2.75-3.05-2.18,9.56-3.72Z"/><path class="cls-2" d="m120.98,913.22l9.78,12.34,7.7-2.65,4,5.05-37.88,12.84-4.44-5.6,21.14-33.96,4.03,5.09-4.34,6.89Zm-2.87,4.48l-9.9,15.65,17.53-6.03-7.63-9.62Z"/><path class="cls-2" d="m107.42,880.77l-7.56,15.62,2.65,3.89,12.44-8.46,3.47,5.1-31.09,21.16-7.31-10.74c-1.62-2.38-2.58-4.69-2.87-6.91-.29-2.22-.01-4.22.83-6,.84-1.77,2.13-3.25,3.86-4.43,2.03-1.38,4.27-2.04,6.73-1.99,2.46.05,4.82,1.1,7.08,3.14l7.65-16.46,4.14,6.08Zm-8.99,22.28l-3.84-5.64c-1.3-1.91-2.75-3.02-4.37-3.34-1.61-.32-3.23.07-4.84,1.16-1.61,1.1-2.54,2.43-2.81,4-.26,1.57.27,3.33,1.59,5.27l3.84,5.64,10.42-7.09Z"/><path class="cls-2" d="m91.69,850.88l-9.25,20.24,15.3-7,2.57,5.61-34.2,15.64-2.57-5.61,15.6-7.13-21.67-6.15-3.22-7.04,23.92,7.03,10.17-22.92,3.35,7.33Z"/><path class="cls-1" d="m56.09,827.24l7.16-7.59.99,3.95-4.8,5.08,6.58,1.99.92,3.64-9.66-3.36-7.19,7.6-.99-3.95,4.8-5.08-6.58-1.99-.92-3.64,9.69,3.35Z"/><path class="cls-2" d="m69.71,741.76l-1.36,15.69,7.42,3.36-.55,6.42-36.36-16.67.61-7.12,38.68-10.18-.56,6.47-7.89,2.03Zm-5.16,1.29l-17.94,4.59,16.88,7.65,1.06-12.24Z"/><path class="cls-2" d="m84.14,710.13l-16.74,4.57-1.19,4.55,14.55,3.8-1.56,5.97-36.38-9.51,3.28-12.56c.73-2.79,1.84-5.03,3.32-6.71,1.48-1.68,3.17-2.79,5.06-3.32,1.89-.53,3.85-.53,5.87,0,2.37.62,4.35,1.87,5.92,3.76,1.58,1.89,2.34,4.35,2.29,7.39l17.43-5.06-1.86,7.12Zm-22.7,7.88l1.72-6.6c.58-2.23.47-4.06-.35-5.49-.82-1.42-2.17-2.39-4.06-2.88-1.88-.49-3.5-.32-4.86.52-1.36.84-2.33,2.39-2.92,4.66l-1.72,6.6,12.2,3.19Z"/><path class="cls-2" d="m96.6,678.74l-21.36,6.23,15.3,7-2.57,5.61-34.2-15.65,2.57-5.61,15.6,7.14-9.52-20.42,3.22-7.04,10.32,22.7,23.99-7.29-3.35,7.33Z"/><path class="cls-1" d="m91.89,636.22l10.41.75-2.43,3.27-6.97-.51,2.63,6.36-2.24,3.01-3.51-9.61-10.44-.76,2.43-3.27,6.97.51-2.63-6.35,2.24-3.01,3.54,9.62Z"/><path class="cls-2" d="m168.64,595.26l-13.51,8.08,1.62,7.98-5.53,3.3-7.77-39.24,6.13-3.67,30.89,25.41-5.57,3.33-6.27-5.21Zm-4.07-3.43l-14.22-11.86,3.68,18.17,10.54-6.3Z"/><path class="cls-2" d="m202.77,588.13l-13.67-10.69-4.36,1.77,5.65,13.94-5.72,2.32-14.13-34.85,12.04-4.88c2.67-1.08,5.13-1.53,7.36-1.35,2.24.18,4.13.88,5.69,2.07,1.56,1.2,2.73,2.77,3.51,4.71.92,2.27,1.1,4.61.53,7-.57,2.39-2.09,4.48-4.56,6.26l14.48,10.94-6.82,2.77Zm-19.89-13.48l6.32-2.56c2.14-.87,3.54-2.06,4.19-3.57.65-1.51.61-3.17-.12-4.97-.73-1.81-1.84-3-3.32-3.59-1.48-.58-3.31-.44-5.48.44l-6.32,2.56,4.74,11.68Z"/><path class="cls-2" d="m235.51,578.14l-18.41-12.49,4.35,16.26-5.96,1.59-9.73-36.33,5.96-1.6,4.44,16.57,9.68-20.35,7.47-2-10.92,22.42,20.9,13.84-7.79,2.09Z"/><path class="cls-1" d="m262.95,545.65l7,7.74-4.01.68-4.68-5.19-2.5,6.41-3.7.62,4.11-9.37-7.01-7.77,4.01-.68,4.68,5.19,2.5-6.41,3.7-.62-4.11,9.4Z"/><path class="cls-2" d="m346.58,550.4l-15.49,2.81-1.29,8.04-6.34,1.15,6.55-39.46,7.03-1.27,19.97,34.66-6.39,1.16-4.03-7.08Zm-2.6-4.64l-9.13-16.11-2.96,18.3,12.09-2.19Z"/><path class="cls-2" d="m381.9,551.65l-11.29-13.19-4.63.87,2.78,14.78-6.06,1.14-6.94-36.96,12.76-2.4c2.84-.53,5.33-.49,7.49.14,2.15.62,3.88,1.68,5.16,3.16,1.29,1.48,2.13,3.25,2.51,5.31.45,2.41.16,4.73-.87,6.96-1.03,2.23-2.93,3.97-5.71,5.23l12.02,13.6-7.23,1.36Zm-16.82-17.16l6.7-1.26c2.27-.43,3.87-1.31,4.81-2.67.94-1.35,1.23-2.98.87-4.9-.36-1.91-1.21-3.31-2.55-4.17-1.34-.87-3.16-1.09-5.46-.65l-6.7,1.26,2.33,12.39Z"/><path class="cls-2" d="m416.57,544.97l-17.51-13.73,3.22,16.52-6.05,1.18-7.2-36.91,6.05-1.18,3.28,16.84,11.06-19.63,7.59-1.48-12.43,21.61,19.9,15.25-7.91,1.54Z"/><path class="cls-1" d="m443.55,512.05l7.39,7.37-3.97.88-4.94-4.94-2.17,6.53-3.67.81,3.63-9.56-7.4-7.4,3.97-.88,4.95,4.94,2.17-6.53,3.66-.81-3.62,9.59Z"/><path class="cls-2" d="m528,506.66l-14.8,5.38.09,8.15-6.05,2.2-.22-40,6.71-2.44,25.54,30.78-6.1,2.22-5.17-6.3Zm-3.35-4.14l-11.72-14.33.18,18.53,11.54-4.2Z"/><path class="cls-2" d="m563.93,500.09l-13.95-10.32-4.31,1.88,6.02,13.79-5.65,2.47-15.04-34.47,11.9-5.19c2.64-1.15,5.09-1.67,7.33-1.54,2.24.13,4.15.77,5.74,1.92,1.59,1.16,2.8,2.69,3.64,4.61.98,2.25,1.22,4.58.71,6.98-.51,2.4-1.97,4.53-4.39,6.37l14.76,10.56-6.74,2.94Zm-20.24-12.95l6.25-2.73c2.12-.92,3.48-2.15,4.09-3.68.61-1.53.53-3.18-.25-4.97-.78-1.79-1.92-2.95-3.42-3.5-1.5-.55-3.32-.35-5.47.59l-6.25,2.73,5.04,11.56Z"/><path class="cls-2" d="m596.98,484.02l-20.61-8.39,7.63,15-5.5,2.8-17.06-33.51,5.5-2.8,7.78,15.29,5.24-21.91,6.9-3.51-6.02,24.19,23.32,9.2-7.18,3.66Z"/><path class="cls-1" d="m613.62,443.83l9.33,4.68-3.49,2.09-6.25-3.14v6.88s-3.23,1.92-3.23,1.92l.44-10.22-9.35-4.71,3.49-2.09,6.25,3.14v-6.88s3.23-1.92,3.23-1.92l-.42,10.25Z"/><path class="cls-2" d="m692.11,412.2l-12.36,9.76,2.64,7.71-5.05,3.99-12.76-37.91,5.61-4.43,33.91,21.22-5.1,4.02-6.88-4.36Zm-4.48-2.88l-15.63-9.93,5.99,17.54,9.64-7.61Z"/><path class="cls-2" d="m724.14,394.7l-16.49-5.42-3.51,3.14,10.04,11.2-4.59,4.12-25.1-28,9.67-8.67c2.15-1.93,4.31-3.18,6.47-3.77,2.17-.58,4.18-.58,6.05.02,1.87.6,3.5,1.68,4.9,3.24,1.64,1.83,2.59,3.96,2.87,6.4.28,2.44-.45,4.92-2.17,7.43l17.33,5.39-5.48,4.91Zm-23.28-5.95l5.08-4.55c1.72-1.54,2.63-3.13,2.73-4.77.1-1.64-.5-3.19-1.8-4.64-1.3-1.45-2.75-2.2-4.34-2.25-1.59-.05-3.26.71-5.01,2.27l-5.08,4.55,8.42,9.39Z"/><path class="cls-2" d="m750.49,369.02l-22.2-1.48,11.96,11.83-4.34,4.39-26.74-26.45,4.34-4.39,12.2,12.06-1.92-22.45,5.44-5.5,1.9,24.86,25.03,1.39-5.67,5.73Z"/><path class="cls-1" d="m753.62,325.64l10.33,1.49-2.66,3.08-6.92-1.01,2.16,6.53-2.45,2.84-2.81-9.83-10.36-1.51,2.66-3.08,6.92,1.01-2.16-6.53,2.45-2.84,2.83,9.86Z"/><path class="cls-2" d="m817.99,270.97l-8.71,13.12,4.9,6.5-3.56,5.36-23.92-32.06,3.95-5.95,38.83,9.61-3.59,5.41-7.9-2Zm-5.15-1.34l-17.94-4.57,11.15,14.81,6.79-10.23Z"/><path class="cls-2" d="m842.66,246.24l-17.35-.53-2.47,4.01,12.8,7.9-3.24,5.25-32-19.75,6.82-11.05c1.52-2.46,3.23-4.27,5.14-5.44,1.91-1.17,3.85-1.74,5.81-1.69,1.96.05,3.84.62,5.62,1.72,2.09,1.29,3.61,3.06,4.56,5.33.96,2.26.96,4.85.02,7.74l18.15.27-3.87,6.26Zm-24.01.89l3.58-5.8c1.21-1.96,1.64-3.75,1.27-5.35-.37-1.6-1.38-2.92-3.04-3.94-1.66-1.02-3.26-1.33-4.8-.93-1.54.4-2.93,1.6-4.16,3.6l-3.58,5.8,10.73,6.62Z"/><path class="cls-2" d="m860.48,215.98l-21.85,4.19,14.57,8.42-3.08,5.34-32.57-18.8,3.08-5.34,14.85,8.58-7.55-21.23,3.87-6.7,8.14,23.57,24.57-5-4.03,6.98Z"/><path class="cls-1" d="m852.79,174.33l10.41-.79-1.92,3.59-6.97.52,3.53,5.9-1.77,3.31-4.88-8.99-10.44.77,1.92-3.59,6.97-.52-3.53-5.9,1.77-3.31,4.91,9Z"/><path class="cls-2" d="m905.59,110.88l-6.65,14.27,5.82,5.7-2.72,5.84-28.46-28.11,3.01-6.48,39.83,3.68-2.74,5.89-8.11-.79Zm-5.29-.55l-18.43-1.83,13.24,12.97,5.18-11.14Z"/><path class="cls-2" d="m926.49,82.71l-17.25,1.95-1.88,4.32,13.8,5.99-2.46,5.66-34.49-14.99,5.18-11.91c1.15-2.65,2.59-4.69,4.31-6.12,1.72-1.43,3.56-2.27,5.51-2.5,1.95-.23,3.89.07,5.8.9,2.25.98,4.01,2.52,5.28,4.62,1.27,2.11,1.64,4.66,1.13,7.66l18-2.33-2.93,6.75Zm-23.64,4.3l2.72-6.25c.92-2.12,1.08-3.94.49-5.48-.59-1.53-1.78-2.69-3.57-3.47-1.79-.78-3.41-.85-4.88-.23-1.47.62-2.67,2.01-3.61,4.16l-2.72,6.25,11.56,5.02Z"/><path class="cls-2" d="m939.93,50.24l-21.06,7.17,15.6,6.32-2.32,5.72-34.86-14.12,2.32-5.72,15.9,6.44-10.42-19.98,2.9-7.17,11.32,22.21,23.64-8.35-3.03,7.47Z"/></g></svg>