<svg width="2900" height="800.0000000000001" xmlns="http://www.w3.org/2000/svg"><g><title>Layer 1</title><g><g id="svg_5"><path stroke-width="10px" stroke-miterlimit="10" stroke="#f7f7f9" fill="#f7f7f9" d="m-19.63266,738.26555l-27,-47c5.46,-3.05 272.43,-155.64 465.49,-228.22c113.46,-42.66 224.8,-76.36 330.93,-100.18c133.27,-29.91 258.77,-44.22 373.01,-42.6c158.81,2.28 269.27,27.12 386.23,53.42c141.41,31.79 287.63,64.68 537.52,59.99c152.52,-2.86 355.22,-96.3 494.65,-180.58c160.17,-96.82 396.98,-249.93 398.17,-250.82l37,43c-1.22,0.91 -246.45,169.08 -404.81,259.58c-93.35,53.34 -180.99,96.15 -260.5,127.23c-101,39.48 -189.62,60.2 -263.39,61.58c-257.11,4.81 -406.93,-28.86 -551.8,-61.44c-113.83,-25.59 -221.35,-49.77 -373.93,-51.96c-109.37,-1.57 -229.96,12.23 -358.42,41.01c-103.3,23.15 -211.83,55.97 -322.58,97.56c-189.1,71.02 -459.27,218.7 -460.57,219.43z" class="cls-2" id="svg_6"/><g><path fill="#ff3600" d="m80.30734,644.87555l2.24,8.56l5.9,-2.97l2.25,4.47l-6.83,3.44l2.37,9.16l-4.87,2.45l-2.37,-9.16l-8.75,4.41l2.37,9.16l-4.87,2.45l-2.37,-9.16l-6.92,3.48l-2.25,-4.47l7.86,-3.96l-2.24,-8.56l-6.88,3.46l-2.25,-4.47l7.82,-3.93l-2.35,-9.01l4.87,-2.45l2.35,9.01l8.75,-4.41l-2.35,-9l4.87,-2.45l2.35,9.01l5.94,-2.99l2.25,4.47l-6.88,3.46l-0.01,0zm-4.87,2.45l-8.75,4.41l2.24,8.56l8.75,-4.41l-2.24,-8.56z" class="cls-1"/><path d="m119.09734,643.19555l-13.03,6.47l0.92,7.47l-5.33,2.65l-4.33,-36.71l5.91,-2.94l26.63,25.63l-5.37,2.67l-5.4,-5.25l0,0.01zm-3.5,-3.45l-12.25,-11.95l2.08,17l10.17,-5.05z"/><path d="m150.86734,635.45555l-13.31,-8.95l-3.9,1.92l6.13,12.48l-5.12,2.51l-15.31,-31.19l10.77,-5.29c2.39,-1.17 4.63,-1.75 6.7,-1.73c2.07,0.02 3.86,0.54 5.38,1.54c1.51,1 2.7,2.37 3.55,4.11c1,2.04 1.31,4.17 0.95,6.41c-0.37,2.24 -1.63,4.26 -3.79,6.07l14.07,9.14l-6.1,3l-0.02,-0.02zm-19.22,-11.12l5.66,-2.78c1.91,-0.94 3.12,-2.13 3.63,-3.56c0.5,-1.43 0.36,-2.96 -0.44,-4.58c-0.79,-1.62 -1.89,-2.64 -3.3,-3.09c-1.41,-0.44 -3.08,-0.19 -5.03,0.77l-5.66,2.78l5.13,10.46l0.01,0z"/><path d="m180.21734,621.16555l-18.89,-8.12l6.79,13.99l-5.13,2.49l-15.16,-31.27l5.13,-2.49l6.92,14.26l5.23,-20.15l6.43,-3.12l-5.99,22.25l21.38,8.91l-6.7,3.25l-0.01,0z"/><path d="m207.27734,600.29555l-13.13,6.28l0.81,7.48l-5.37,2.57l-3.78,-36.77l5.95,-2.85l26.25,26.02l-5.41,2.59l-5.32,-5.33l0,0.01zm-3.45,-3.5l-12.06,-12.13l1.83,17.03l10.24,-4.9l-0.01,0z"/><path d="m228.02734,562.25555c3.12,0.1 5.93,1.02 8.43,2.78c2.5,1.75 4.5,4.23 6.01,7.42c1.5,3.2 2.12,6.29 1.86,9.29c-0.27,3 -1.36,5.72 -3.29,8.15c-1.93,2.44 -4.57,4.44 -7.92,6.02l-10.27,4.83l-14.79,-31.45l10.27,-4.83c3.35,-1.58 6.58,-2.31 9.71,-2.22l-0.01,0.01zm10.16,22.49c1.02,-2.91 0.69,-6.18 -1.02,-9.8c-1.72,-3.65 -4.04,-6.04 -6.96,-7.17c-2.93,-1.13 -6.23,-0.83 -9.91,0.9l-5.11,2.4l10.83,23.03l5.11,-2.4c3.68,-1.73 6.03,-4.05 7.06,-6.97l0,0.01z"/><path d="m245.43734,551.80555l14.63,31.52l-5.17,2.4l-14.63,-31.52l5.17,-2.4z"/><path d="m282.93734,564.99555l-13.23,6.05l0.68,7.5l-5.41,2.48l-3.16,-36.83l6,-2.75l25.8,26.46l-5.46,2.5l-5.23,-5.42l0.01,0.01zm-3.39,-3.56l-11.86,-12.33l1.54,17.06l10.32,-4.72l0,-0.01z"/><path d="m324.52734,554.08555l-5.2,2.33l-26.24,-16.7l10.58,23.69l-5.2,2.32l-14.19,-31.77l5.2,-2.33l26.22,16.65l-10.56,-23.65l5.2,-2.33l14.19,31.77l0,0.02z"/><path fill="#ff3600" d="m397.29734,498.46555l1.54,8.71l6.11,-2.49l1.88,4.63l-7.09,2.88l1.63,9.32l-5.05,2.05l-1.63,-9.32l-9.08,3.69l1.63,9.32l-5.05,2.05l-1.63,-9.32l-7.18,2.92l-1.88,-4.63l8.15,-3.31l-1.54,-8.71l-7.13,2.9l-1.88,-4.63l8.11,-3.3l-1.62,-9.16l5.05,-2.05l1.62,9.16l9.08,-3.69l-1.62,-9.17l5.05,-2.05l1.62,9.16l6.16,-2.5l1.88,4.63l-7.13,2.9l0,0.01zm-5.05,2.05l-9.08,3.69l1.54,8.71l9.08,-3.69l-1.54,-8.71z" class="cls-1"/><path d="m411.96734,479.98555l12.58,32.39l-5.31,2.06l-12.58,-32.39l5.31,-2.06z"/><path d="m458.18734,499.73555l-5.34,1.99l-25.13,-18.33l9.06,24.32l-5.34,1.99l-12.14,-32.61l5.34,-1.99l25.11,18.29l-9.04,-24.27l5.34,-1.99l12.14,32.61l0,-0.01z"/><path d="m474.50734,456.92555l1.57,4.38l-8.71,3.13l10.18,28.33l-5.36,1.93l-10.18,-28.33l-8.75,3.14l-1.57,-4.38l22.82,-8.2z"/><path d="m497.50734,483.64555c-3.06,-0.55 -5.79,-1.84 -8.17,-3.9c-2.38,-2.05 -4.13,-4.68 -5.24,-7.9c-1.11,-3.21 -1.36,-6.35 -0.74,-9.42c0.61,-3.07 1.96,-5.76 4.03,-8.08c2.07,-2.32 4.64,-4.01 7.69,-5.06c3.09,-1.07 6.16,-1.33 9.23,-0.78c3.06,0.55 5.78,1.84 8.14,3.88c2.36,2.04 4.1,4.67 5.21,7.88s1.37,6.36 0.77,9.44c-0.59,3.08 -1.93,5.78 -4,8.1c-2.07,2.32 -4.65,4.01 -7.74,5.08c-3.06,1.06 -6.12,1.31 -9.18,0.76zm12.86,-8.94c1.36,-1.58 2.2,-3.46 2.52,-5.63c0.32,-2.17 0.07,-4.47 -0.77,-6.9c-0.84,-2.43 -2.05,-4.39 -3.65,-5.88c-1.59,-1.49 -3.41,-2.44 -5.45,-2.83s-4.15,-0.21 -6.32,0.54c-2.17,0.75 -3.94,1.91 -5.31,3.47c-1.36,1.56 -2.21,3.43 -2.54,5.59c-0.33,2.16 -0.08,4.45 0.76,6.88c0.84,2.43 2.06,4.39 3.65,5.91c1.6,1.51 3.42,2.47 5.46,2.87c2.04,0.4 4.15,0.23 6.33,-0.52c2.17,-0.75 3.94,-1.92 5.3,-3.5l0.02,0z"/><path fill="#ff3600" d="m538.94734,434.98555l1.46,4.41l-8.78,2.91l9.47,28.57l-5.41,1.79l-9.47,-28.57l-8.83,2.93l-1.46,-4.41l23.02,-7.63z" class="cls-1"/><path fill="#ff3600" d="m571.17734,424.68555l10.53,33.12l-5.43,1.73l-4.6,-14.49l-15.58,4.95l4.6,14.49l-5.43,1.73l-10.53,-33.12l5.43,-1.73l4.51,14.2l15.58,-4.95l-4.51,-14.2l5.43,-1.73z" class="cls-1"/><path fill="#ff3600" d="m585.44734,425.12555l2.97,9.76l11.48,-3.5l1.35,4.45l-11.48,3.5l3.1,10.19l12.91,-3.93l1.35,4.45l-18.37,5.59l-10.14,-33.29l18.37,-5.59l1.35,4.45l-12.91,3.93l0.02,-0.01z" class="cls-1"/><path d="m623.62734,408.96555l1.31,4.46l-14.16,4.15l2.88,9.84l11.04,-3.23l1.31,4.46l-11.04,3.23l4.27,14.59l-5.47,1.6l-9.77,-33.35l19.63,-5.75z"/><path d="m634.46734,405.88555l5.96,21.33c0.71,2.54 1.91,4.26 3.6,5.17s3.72,1.04 6.1,0.37c2.41,-0.67 4.1,-1.84 5.07,-3.49c0.97,-1.66 1.11,-3.75 0.4,-6.29l-5.96,-21.33l5.49,-1.53l5.93,21.24c0.76,2.73 0.81,5.21 0.15,7.43c-0.66,2.23 -1.85,4.08 -3.58,5.57c-1.73,1.49 -3.8,2.57 -6.21,3.24c-2.41,0.67 -4.73,0.82 -6.96,0.44c-2.23,-0.38 -4.19,-1.35 -5.88,-2.93c-1.68,-1.57 -2.91,-3.72 -3.67,-6.45l-5.93,-21.24l5.49,-1.53z"/><path d="m684.31734,392.35555l1.19,4.5l-8.94,2.37l7.7,29.1l-5.51,1.46l-7.7,-29.1l-8.99,2.38l-1.19,-4.5l23.44,-6.21z"/><path d="m695.71734,389.45555l5.37,21.49c0.64,2.56 1.79,4.31 3.45,5.27c1.66,0.96 3.69,1.14 6.09,0.54c2.43,-0.61 4.15,-1.72 5.17,-3.35c1.02,-1.63 1.21,-3.72 0.57,-6.28l-5.37,-21.49l5.53,-1.38l5.34,21.39c0.69,2.75 0.67,5.23 -0.05,7.43c-0.72,2.21 -1.97,4.03 -3.74,5.47c-1.77,1.44 -3.87,2.46 -6.29,3.07c-2.43,0.61 -4.75,0.69 -6.97,0.25s-4.16,-1.47 -5.8,-3.09s-2.8,-3.8 -3.49,-6.55l-5.34,-21.39l5.53,-1.38z"/><path d="m749.60734,412.17555l-10.95,-11.72l-4.24,0.99l3.16,13.54l-5.55,1.29l-7.9,-33.84l11.69,-2.73c2.6,-0.61 4.9,-0.66 6.92,-0.18c2.01,0.49 3.64,1.39 4.89,2.71c1.25,1.32 2.09,2.92 2.53,4.8c0.52,2.21 0.34,4.36 -0.52,6.46c-0.86,2.1 -2.55,3.79 -5.06,5.06l11.65,12.07l-6.62,1.54l0,0.01zm-16.22,-15.16l6.14,-1.43c2.08,-0.48 3.52,-1.37 4.34,-2.65c0.81,-1.28 1.01,-2.8 0.61,-4.56c-0.41,-1.75 -1.25,-3 -2.52,-3.75c-1.27,-0.75 -2.96,-0.88 -5.07,-0.38l-6.14,1.43l2.65,11.35l-0.01,-0.01z"/><path d="m761.83734,378.51555l2.18,9.97l11.72,-2.56l0.99,4.54l-11.72,2.56l2.27,10.41l13.19,-2.88l0.99,4.54l-18.76,4.1l-7.43,-34l18.76,-4.1l0.99,4.54l-13.19,2.88l0.01,0z"/><path fill="#ff3600" d="m863.81734,366.18555l-0.37,8.84l6.51,-1.11l0.84,4.93l-7.54,1.29l-0.41,9.45l-5.37,0.92l0.41,-9.46l-9.66,1.65l-0.41,9.46l-5.37,0.92l0.41,-9.46l-7.64,1.31l-0.84,-4.93l8.67,-1.48l0.37,-8.84l-7.59,1.3l-0.84,-4.93l8.62,-1.47l0.39,-9.3l5.37,-0.92l-0.39,9.3l9.66,-1.65l0.39,-9.3l5.37,-0.92l-0.39,9.3l6.56,-1.12l0.84,4.93l-7.59,1.3l0,-0.01zm-5.37,0.92l-9.66,1.65l-0.37,8.84l9.66,-1.65l0.37,-8.84z" class="cls-1"/><path d="m902.67734,368.30555c1.53,1.42 2.44,3.16 2.75,5.2c0.26,1.75 0.04,3.39 -0.66,4.93c-0.7,1.54 -1.84,2.84 -3.44,3.9c-1.59,1.06 -3.53,1.76 -5.8,2.1l-13.75,2.05l-5.12,-34.37l13.1,-1.95c2.34,-0.35 4.41,-0.25 6.21,0.29c1.8,0.54 3.23,1.41 4.28,2.62c1.06,1.21 1.71,2.64 1.95,4.28c0.29,1.98 0.01,3.71 -0.85,5.18c-0.86,1.48 -2.13,2.66 -3.82,3.55c1.9,0.05 3.61,0.79 5.13,2.22l0.02,0zm-18.23,-2.59l6.97,-1.04c1.85,-0.28 3.23,-0.91 4.14,-1.91c0.91,-1 1.25,-2.28 1.02,-3.87c-0.23,-1.55 -0.93,-2.68 -2.1,-3.4s-2.68,-0.94 -4.52,-0.67l-6.97,1.04l1.47,9.84l-0.01,0.01zm14.19,12.14c0.95,-1.08 1.3,-2.45 1.06,-4.1c-0.25,-1.68 -1.03,-2.93 -2.33,-3.75c-1.3,-0.82 -2.91,-1.08 -4.82,-0.8l-7.42,1.11l1.6,10.73l7.62,-1.14c1.91,-0.29 3.34,-0.97 4.29,-2.06l0,0.01z"/><path d="m914.52734,351.31555l1.33,10.11l11.9,-1.56l0.61,4.61l-11.9,1.56l1.39,10.56l13.38,-1.76l0.61,4.61l-19.04,2.5l-4.54,-34.5l19.04,-2.5l0.61,4.61l-13.38,1.76l-0.01,0z"/><path d="m936.14734,352.07555c1.28,-2.86 3.18,-5.19 5.71,-7c2.53,-1.81 5.41,-2.89 8.62,-3.25c3.68,-0.41 7.05,0.13 10.12,1.62c3.07,1.49 5.43,3.82 7.09,6.99l-6.81,0.75c-1.1,-1.72 -2.49,-2.94 -4.18,-3.66s-3.58,-0.96 -5.67,-0.73c-2.29,0.25 -4.27,0.99 -5.94,2.22c-1.67,1.23 -2.91,2.86 -3.71,4.89s-1.05,4.33 -0.77,6.88c0.28,2.55 1.04,4.73 2.26,6.54c1.22,1.81 2.79,3.14 4.69,3.98c1.9,0.84 4,1.14 6.29,0.89c2.09,-0.23 3.88,-0.88 5.37,-1.95c1.49,-1.07 2.58,-2.57 3.27,-4.49l6.81,-0.75c-0.92,3.46 -2.72,6.24 -5.39,8.34c-2.67,2.11 -5.84,3.36 -9.52,3.77c-3.25,0.36 -6.3,-0.06 -9.15,-1.27c-2.85,-1.21 -5.21,-3.07 -7.08,-5.58c-1.87,-2.51 -2.99,-5.45 -3.37,-8.83c-0.38,-3.38 0.08,-6.5 1.35,-9.36l0.01,0z"/><path d="m983.55734,371.90555c-2.84,-1.28 -5.16,-3.21 -6.96,-5.78c-1.81,-2.57 -2.86,-5.55 -3.14,-8.94c-0.29,-3.39 0.24,-6.49 1.59,-9.32c1.35,-2.82 3.31,-5.11 5.89,-6.85c2.58,-1.74 5.48,-2.75 8.7,-3.02c3.25,-0.28 6.3,0.23 9.14,1.51c2.83,1.28 5.15,3.2 6.94,5.76c1.79,2.56 2.83,5.53 3.12,8.92s-0.23,6.5 -1.56,9.34c-1.33,2.84 -3.29,5.13 -5.86,6.87c-2.58,1.74 -5.5,2.75 -8.75,3.03c-3.22,0.27 -6.25,-0.23 -9.09,-1.51l-0.02,-0.01zm14.66,-5.51c1.7,-1.2 2.98,-2.81 3.83,-4.84c0.85,-2.03 1.16,-4.32 0.95,-6.88c-0.22,-2.56 -0.91,-4.76 -2.09,-6.6c-1.18,-1.84 -2.71,-3.2 -4.59,-4.08c-1.88,-0.88 -3.97,-1.22 -6.26,-1.02c-2.29,0.2 -4.29,0.88 -6,2.07c-1.71,1.18 -2.98,2.78 -3.83,4.79c-0.85,2.01 -1.17,4.3 -0.95,6.85c0.22,2.56 0.92,4.76 2.09,6.62c1.18,1.86 2.71,3.23 4.59,4.13c1.88,0.89 3.97,1.24 6.26,1.05c2.29,-0.19 4.29,-0.89 5.99,-2.09l0.01,0z"/><path d="m1050.24734,334.44555l1.93,34.7l-5.69,0.32l-1.32,-23.76l-9.26,24.35l-3.94,0.22l-11.95,-23.17l1.32,23.76l-5.69,0.32l-1.93,-34.7l6.14,-0.34l13.69,26.53l10.62,-27.88l6.09,-0.34l-0.01,-0.01z"/><path d="m1064.01734,334.05555l1.19,34.73l-5.7,0.19l-1.19,-34.73l5.7,-0.2l0,0.01z"/><path d="m1101.08734,368.06555l-5.7,0.08l-17.54,-25.69l0.39,25.95l-5.7,0.08l-0.52,-34.8l5.7,-0.09l17.53,25.64l-0.39,-25.9l5.7,-0.08l0.52,34.8l0.01,0.01z"/><path d="m1133.87734,343.71555c-0.87,-1.75 -2.1,-3.08 -3.68,-3.99s-3.43,-1.38 -5.53,-1.42c-2.3,-0.04 -4.36,0.44 -6.18,1.44c-1.82,1 -3.25,2.44 -4.3,4.33c-1.05,1.88 -1.6,4.07 -1.64,6.57c-0.04,2.5 0.43,4.72 1.41,6.65c0.98,1.93 2.37,3.43 4.15,4.5c1.78,1.06 3.82,1.62 6.12,1.66c3.1,0.05 5.63,-0.77 7.59,-2.47c1.96,-1.7 3.19,-4.03 3.67,-6.99l-13.05,-0.23l0.08,-4.55l19.15,0.33l-0.08,4.45c-0.41,2.69 -1.41,5.16 -3,7.4c-1.59,2.24 -3.64,4.01 -6.14,5.32c-2.51,1.31 -5.28,1.93 -8.31,1.88c-3.27,-0.06 -6.24,-0.87 -8.91,-2.43s-4.78,-3.71 -6.31,-6.44c-1.54,-2.73 -2.27,-5.79 -2.22,-9.19c0.06,-3.4 0.9,-6.44 2.53,-9.11c1.63,-2.67 3.82,-4.74 6.56,-6.21c2.74,-1.47 5.73,-2.18 8.96,-2.12c3.7,0.06 6.97,1.03 9.83,2.9c2.85,1.87 4.9,4.48 6.14,7.83l-6.85,-0.12l0.01,0.01z"/><path fill="#ff3600" d="m1175.87734,335.13555l-1.39,34.72l-5.7,-0.23l0.61,-15.19l-16.34,-0.65l-0.61,15.19l-5.7,-0.23l1.39,-34.72l5.7,0.23l-0.6,14.89l16.34,0.65l0.59,-14.89l5.7,0.23l0.01,0z" class="cls-1"/><path fill="#ff3600" d="m1189.35734,340.53555l-0.62,10.18l11.98,0.73l-0.28,4.64l-11.98,-0.73l-0.65,10.63l13.47,0.83l-0.28,4.64l-19.16,-1.17l2.13,-34.73l19.16,1.17l-0.28,4.64l-13.48,-0.83l-0.01,0z" class="cls-1"/><path fill="#ff3600" d="m1225.75734,373.39555l-6.84,-14.51l-4.34,-0.36l-1.14,13.85l-5.68,-0.47l2.84,-34.63l11.96,0.98c2.66,0.22 4.87,0.87 6.64,1.95c1.77,1.08 3.04,2.44 3.83,4.08c0.79,1.64 1.1,3.42 0.94,5.34c-0.19,2.26 -1.01,4.26 -2.47,5.99c-1.46,1.74 -3.58,2.83 -6.36,3.27l7.39,15.05l-6.78,-0.56l0.01,0.02zm-10.8,-19.4l6.28,0.52c2.13,0.17 3.77,-0.23 4.94,-1.2c1.17,-0.97 1.82,-2.36 1.97,-4.15c0.15,-1.79 -0.27,-3.24 -1.25,-4.34c-0.98,-1.1 -2.55,-1.74 -4.71,-1.92l-6.28,-0.51l-0.95,11.61l0,-0.01z" class="cls-1"/><path fill="#ff3600" d="m1246.15734,373.35555c-2.54,-1.8 -4.45,-4.13 -5.73,-7c-1.28,-2.87 -1.74,-6 -1.38,-9.38c0.36,-3.38 1.48,-6.33 3.34,-8.84c1.86,-2.51 4.23,-4.38 7.09,-5.6c2.86,-1.22 5.9,-1.65 9.12,-1.3c3.25,0.35 6.14,1.42 8.68,3.22c2.54,1.8 4.44,4.12 5.71,6.98c1.27,2.85 1.72,5.97 1.36,9.35c-0.36,3.38 -1.47,6.34 -3.32,8.87c-1.85,2.53 -4.21,4.41 -7.07,5.62c-2.86,1.22 -5.92,1.65 -9.17,1.3c-3.22,-0.35 -6.09,-1.42 -8.63,-3.22zm15.44,-2.61c1.9,-0.85 3.46,-2.19 4.68,-4.02c1.22,-1.83 1.97,-4.02 2.24,-6.57c0.27,-2.55 0.01,-4.84 -0.79,-6.87c-0.8,-2.03 -2.04,-3.66 -3.72,-4.88c-1.68,-1.22 -3.66,-1.95 -5.95,-2.2c-2.29,-0.25 -4.38,0.05 -6.28,0.88c-1.9,0.83 -3.46,2.16 -4.68,3.97c-1.22,1.81 -1.96,4 -2.24,6.55c-0.27,2.55 -0.01,4.85 0.79,6.9c0.8,2.05 2.04,3.69 3.72,4.93c1.68,1.24 3.66,1.98 5.95,2.23c2.29,0.25 4.38,-0.06 6.28,-0.91l0,-0.01z" class="cls-1"/><path fill="#ff3600" d="m1287.39734,349.71555l-1.33,10.11l11.9,1.56l-0.61,4.61l-11.9,-1.56l-1.39,10.56l13.38,1.76l-0.61,4.61l-19.04,-2.5l4.54,-34.5l19.04,2.5l-0.61,4.61l-13.38,-1.76l0.01,0z" class="cls-1"/><path fill="#ff3600" d="m1308.84734,382.22555c-1.72,-1.09 -3,-2.45 -3.83,-4.09s-1.1,-3.45 -0.8,-5.43l6.03,0.91c-0.09,1.5 0.31,2.81 1.2,3.92c0.89,1.11 2.28,1.81 4.16,2.1c1.94,0.29 3.53,0.05 4.76,-0.72c1.23,-0.77 1.96,-1.9 2.18,-3.39c0.17,-1.15 -0.02,-2.14 -0.59,-2.97c-0.57,-0.83 -1.32,-1.51 -2.27,-2.06c-0.95,-0.55 -2.27,-1.19 -3.98,-1.92c-2.15,-0.93 -3.88,-1.81 -5.19,-2.63c-1.31,-0.82 -2.36,-1.95 -3.15,-3.38s-1.03,-3.22 -0.71,-5.37c0.3,-1.98 1.06,-3.63 2.27,-4.97c1.21,-1.33 2.77,-2.26 4.67,-2.78c1.9,-0.52 4.02,-0.61 6.36,-0.25c3.33,0.5 5.93,1.75 7.8,3.73c1.87,1.99 2.71,4.45 2.5,7.38l-6.23,-0.94c0.09,-1.27 -0.34,-2.43 -1.29,-3.48s-2.32,-1.72 -4.1,-1.99c-1.62,-0.24 -3,-0.03 -4.14,0.64c-1.15,0.67 -1.84,1.78 -2.07,3.33c-0.16,1.05 0.03,1.97 0.57,2.74c0.54,0.77 1.28,1.43 2.2,1.98c0.93,0.54 2.22,1.18 3.86,1.9c2.18,0.97 3.94,1.88 5.28,2.72c1.34,0.84 2.41,1.99 3.22,3.45c0.81,1.45 1.05,3.27 0.72,5.44c-0.26,1.75 -0.98,3.32 -2.16,4.73c-1.17,1.41 -2.73,2.44 -4.67,3.11c-1.94,0.67 -4.13,0.82 -6.57,0.45c-2.31,-0.35 -4.32,-1.07 -6.05,-2.15l0.02,-0.01z" class="cls-1"/><path fill="#ff3600" d="m1417.36734,379.33555l-3.53,8.11l6.47,1.31l-0.99,4.9l-7.5,-1.52l-3.8,8.67l-5.34,-1.08l3.8,-8.67l-9.6,-1.95l-3.8,8.67l-5.34,-1.08l3.8,-8.67l-7.6,-1.54l0.99,-4.9l8.62,1.75l3.53,-8.11l-7.55,-1.53l0.99,-4.9l8.58,1.74l3.72,-8.53l5.34,1.08l-3.72,8.53l9.6,1.95l3.72,-8.53l5.34,1.08l-3.72,8.53l6.52,1.32l-0.99,4.9l-7.55,-1.53l0.01,0zm-5.34,-1.08l-9.6,-1.95l-3.53,8.11l9.6,1.95l3.53,-8.11z" class="cls-1"/><path d="m1456.13734,375.50555l-0.98,4.54l-9.04,-1.95l-6.35,29.42l-5.57,-1.2l6.35,-29.42l-9.09,-1.96l0.98,-4.55l23.7,5.11l0,0.01z"/><path d="m1466.47734,382.50555l-2.21,9.96l11.71,2.6l-1.01,4.54l-11.71,-2.6l-2.31,10.4l13.18,2.92l-1.01,4.54l-18.74,-4.16l7.54,-33.97l18.74,4.16l-1.01,4.54l-13.18,-2.92l0.01,-0.01z"/><path d="m1486.22734,390.54555c2.14,-2.29 4.7,-3.87 7.68,-4.76c2.98,-0.88 6.05,-0.97 9.21,-0.26c3.61,0.81 6.62,2.42 9.04,4.83c2.41,2.4 3.89,5.38 4.43,8.91l-6.68,-1.5c-0.48,-1.99 -1.4,-3.59 -2.76,-4.82c-1.36,-1.23 -3.07,-2.07 -5.12,-2.54c-2.24,-0.5 -4.36,-0.45 -6.34,0.16c-1.98,0.61 -3.68,1.75 -5.1,3.42c-1.42,1.66 -2.41,3.75 -2.97,6.25c-0.56,2.5 -0.56,4.81 0,6.92c0.57,2.11 1.61,3.87 3.14,5.29c1.53,1.42 3.41,2.38 5.65,2.89c2.05,0.46 3.95,0.43 5.71,-0.1c1.76,-0.53 3.28,-1.59 4.56,-3.18l6.68,1.5c-2,2.97 -4.6,5.01 -7.81,6.14c-3.21,1.12 -6.62,1.28 -10.23,0.47c-3.19,-0.72 -5.93,-2.11 -8.23,-4.18c-2.3,-2.07 -3.93,-4.6 -4.88,-7.58s-1.06,-6.13 -0.31,-9.45c0.75,-3.32 2.19,-6.12 4.32,-8.41l0.01,0z"/><path d="m1552.24734,396.97555l-7.54,33.92l-5.56,-1.24l3.3,-14.84l-15.96,-3.55l-3.3,14.84l-5.56,-1.24l7.54,-33.92l5.56,1.24l-3.23,14.54l15.96,3.55l3.23,-14.54l5.56,1.24z"/><path d="m1579.87734,438.48555l-5.57,-1.2l-11.32,-28.97l-5.45,25.37l-5.57,-1.2l7.31,-34.02l5.57,1.2l11.33,28.92l5.44,-25.32l5.57,1.2l-7.31,34.02z"/><path d="m1594.28734,439.50555c-2.36,-2.02 -4.05,-4.52 -5.07,-7.5c-1.01,-2.98 -1.19,-6.13 -0.51,-9.46c0.67,-3.33 2.05,-6.17 4.14,-8.5c2.09,-2.33 4.61,-3.97 7.57,-4.92c2.96,-0.95 6.03,-1.1 9.2,-0.46c3.2,0.65 5.98,1.98 8.35,4.01c2.36,2.02 4.04,4.51 5.05,7.47c1,2.96 1.17,6.1 0.49,9.43c-0.67,3.33 -2.05,6.18 -4.12,8.53c-2.07,2.35 -4.59,4 -7.55,4.95c-2.96,0.95 -6.05,1.1 -9.25,0.45c-3.17,-0.64 -5.94,-1.97 -8.3,-4zm15.62,-1.18c1.97,-0.67 3.65,-1.87 5.03,-3.58c1.38,-1.71 2.33,-3.82 2.84,-6.34c0.51,-2.52 0.45,-4.82 -0.16,-6.92c-0.61,-2.1 -1.7,-3.83 -3.26,-5.2c-1.56,-1.37 -3.47,-2.28 -5.72,-2.74s-4.37,-0.35 -6.33,0.3s-3.64,1.83 -5.02,3.53c-1.38,1.69 -2.32,3.8 -2.83,6.31c-0.51,2.52 -0.46,4.83 0.15,6.94c0.61,2.11 1.69,3.86 3.25,5.25s3.46,2.31 5.72,2.76c2.25,0.46 4.37,0.35 6.34,-0.33l-0.01,0.02z"/><path d="m1631.92734,444.20555l11.55,2.18l-0.85,4.52l-17.15,-3.23l6.44,-34.15l5.6,1.06l-5.59,29.63l0,-0.01z"/><path d="m1654.31734,451.05555c-2.42,-1.96 -4.17,-4.41 -5.27,-7.36c-1.1,-2.95 -1.35,-6.1 -0.77,-9.45s1.88,-6.22 3.9,-8.61c2.02,-2.39 4.5,-4.1 7.44,-5.13s6,-1.27 9.18,-0.72c3.22,0.56 6.04,1.82 8.45,3.78c2.42,1.96 4.17,4.4 5.25,7.33c1.08,2.93 1.33,6.07 0.75,9.42c-0.58,3.35 -1.88,6.23 -3.88,8.64c-2.01,2.41 -4.48,4.13 -7.42,5.16c-2.94,1.03 -6.01,1.27 -9.23,0.71c-3.19,-0.55 -5.99,-1.81 -8.41,-3.77l0.01,0zm15.58,-1.61c1.95,-0.73 3.6,-1.96 4.93,-3.71c1.33,-1.75 2.22,-3.88 2.66,-6.41c0.44,-2.53 0.32,-4.83 -0.35,-6.91c-0.67,-2.08 -1.81,-3.78 -3.4,-5.11c-1.6,-1.33 -3.53,-2.18 -5.79,-2.58c-2.27,-0.39 -4.37,-0.23 -6.32,0.48c-1.95,0.71 -3.59,1.93 -4.92,3.66c-1.33,1.73 -2.22,3.86 -2.66,6.39c-0.44,2.53 -0.32,4.84 0.34,6.94c0.67,2.1 1.8,3.81 3.39,5.16c1.59,1.34 3.52,2.21 5.79,2.6c2.27,0.39 4.38,0.23 6.33,-0.5l0,-0.01z"/><path d="m1714.22734,437.69555c-0.63,-1.85 -1.67,-3.33 -3.12,-4.45c-1.45,-1.11 -3.21,-1.83 -5.29,-2.15c-2.27,-0.35 -4.38,-0.15 -6.31,0.6c-1.94,0.75 -3.55,1.99 -4.84,3.71c-1.29,1.73 -2.13,3.82 -2.5,6.29s-0.21,4.73 0.51,6.78c0.72,2.05 1.89,3.72 3.51,5.01c1.62,1.29 3.57,2.11 5.85,2.46c3.06,0.47 5.68,0 7.86,-1.43c2.17,-1.42 3.7,-3.57 4.57,-6.43l-12.9,-1.97l0.69,-4.5l18.93,2.89l-0.67,4.4c-0.77,2.61 -2.09,4.92 -3.97,6.93c-1.87,2.01 -4.14,3.49 -6.8,4.45c-2.66,0.96 -5.49,1.21 -8.49,0.75c-3.23,-0.49 -6.06,-1.69 -8.5,-3.6c-2.44,-1.91 -4.24,-4.31 -5.4,-7.22c-1.16,-2.91 -1.48,-6.04 -0.97,-9.4c0.51,-3.36 1.75,-6.26 3.73,-8.69c1.97,-2.43 4.42,-4.19 7.33,-5.28c2.91,-1.09 5.97,-1.39 9.17,-0.9c3.66,0.56 6.77,1.95 9.35,4.18s4.26,5.09 5.04,8.58l-6.77,-1.03l-0.01,0.02z"/><path d="m1734.13734,430.39555l-4.75,34.42l-5.65,-0.78l4.75,-34.42l5.65,0.78z"/><path d="m1741.94734,465.61555c-1.75,-1.04 -3.06,-2.38 -3.93,-4c-0.87,-1.62 -1.18,-3.42 -0.93,-5.41l6.05,0.76c-0.06,1.5 0.38,2.8 1.3,3.89c0.92,1.09 2.33,1.75 4.21,1.99c1.95,0.25 3.53,-0.03 4.74,-0.84s1.91,-1.95 2.1,-3.44c0.15,-1.16 -0.08,-2.14 -0.66,-2.96c-0.59,-0.81 -1.36,-1.48 -2.32,-2.01c-0.96,-0.52 -2.3,-1.13 -4.03,-1.82c-2.17,-0.88 -3.93,-1.71 -5.25,-2.5c-1.33,-0.79 -2.41,-1.89 -3.24,-3.3c-0.83,-1.42 -1.11,-3.2 -0.84,-5.35c0.25,-1.98 0.96,-3.66 2.14,-5.02s2.71,-2.33 4.6,-2.9c1.89,-0.57 4,-0.71 6.35,-0.41c3.34,0.42 5.97,1.6 7.89,3.54c1.92,1.94 2.82,4.38 2.68,7.32l-6.25,-0.79c0.06,-1.27 -0.4,-2.42 -1.38,-3.45s-2.36,-1.66 -4.15,-1.88c-1.62,-0.2 -3,0.04 -4.12,0.74c-1.13,0.7 -1.79,1.82 -1.99,3.38c-0.13,1.06 0.08,1.97 0.64,2.73s1.31,1.4 2.25,1.92s2.24,1.12 3.91,1.8c2.2,0.92 3.98,1.78 5.34,2.59c1.36,0.81 2.46,1.93 3.31,3.36c0.84,1.43 1.13,3.24 0.85,5.42c-0.22,1.75 -0.9,3.35 -2.04,4.78c-1.14,1.44 -2.67,2.51 -4.59,3.23s-4.11,0.92 -6.55,0.61c-2.32,-0.29 -4.35,-0.96 -6.1,-2l0.01,0.02z"/><path d="m1792.65734,437.42555l-0.5,4.62l-9.2,-1.01l-3.27,29.92l-5.67,-0.62l3.27,-29.92l-9.25,-1.01l0.5,-4.62l24.11,2.64l0.01,0z"/><path d="m1799.68734,472.13555c-1.78,-0.99 -3.14,-2.28 -4.06,-3.87c-0.92,-1.59 -1.29,-3.38 -1.11,-5.38l6.07,0.57c0,1.51 0.47,2.79 1.42,3.85c0.96,1.06 2.38,1.68 4.27,1.85c1.96,0.18 3.53,-0.15 4.71,-0.99s1.84,-2.01 1.98,-3.51c0.11,-1.16 -0.14,-2.14 -0.76,-2.93c-0.61,-0.79 -1.41,-1.44 -2.38,-1.93c-0.98,-0.49 -2.34,-1.05 -4.09,-1.69c-2.2,-0.81 -3.98,-1.58 -5.33,-2.33c-1.35,-0.75 -2.47,-1.81 -3.34,-3.2c-0.88,-1.39 -1.21,-3.16 -1.01,-5.32c0.19,-1.99 0.85,-3.69 1.98,-5.09c1.13,-1.4 2.64,-2.42 4.5,-3.04c1.87,-0.63 3.98,-0.83 6.33,-0.62c3.35,0.31 6.02,1.41 8,3.28c1.98,1.88 2.96,4.29 2.92,7.23l-6.27,-0.58c0.02,-1.27 -0.48,-2.4 -1.49,-3.4c-1.01,-1 -2.41,-1.58 -4.21,-1.75c-1.63,-0.15 -2.99,0.14 -4.1,0.87c-1.11,0.73 -1.73,1.88 -1.88,3.44c-0.1,1.06 0.14,1.96 0.73,2.7c0.58,0.74 1.36,1.36 2.31,1.85c0.96,0.49 2.28,1.05 3.96,1.67c2.23,0.84 4.04,1.65 5.42,2.41c1.38,0.77 2.52,1.85 3.41,3.26c0.89,1.41 1.23,3.2 1.03,5.39c-0.16,1.76 -0.79,3.38 -1.88,4.85c-1.09,1.47 -2.59,2.6 -4.48,3.37c-1.9,0.78 -4.07,1.05 -6.53,0.82c-2.32,-0.22 -4.38,-0.82 -6.16,-1.8l0.04,0.02z"/><path fill="#ff3600" d="m1827.40734,467.70555c3.4,-2.51 6.1,-4.59 8.08,-6.22c1.98,-1.63 3.66,-3.37 5.04,-5.2c1.38,-1.83 2.14,-3.71 2.29,-5.64c0.15,-1.99 -0.2,-3.59 -1.06,-4.8c-0.86,-1.2 -2.3,-1.88 -4.33,-2.04c-1.96,-0.15 -3.53,0.35 -4.71,1.52c-1.18,1.16 -1.88,2.79 -2.11,4.88l-5.48,-0.42c0.39,-3.78 1.75,-6.59 4.09,-8.44s5.18,-2.63 8.53,-2.38c3.62,0.28 6.38,1.5 8.27,3.65c1.89,2.15 2.71,4.89 2.45,8.21c-0.18,2.39 -0.97,4.65 -2.35,6.76c-1.38,2.12 -2.98,3.98 -4.8,5.6c-1.81,1.62 -4.1,3.47 -6.87,5.56l-2.4,1.82l15.8,1.22l-0.37,4.74l-24.23,-1.87l0.32,-4.14l3.83,-2.81l0.01,0z" class="cls-1"/><path fill="#ff3600" d="m1857.20734,445.38555c2.15,-3.12 5.6,-4.54 10.35,-4.25c4.76,0.29 8.01,2.12 9.76,5.48c1.75,3.36 2.44,7.92 2.09,13.68c-0.36,5.82 -1.61,10.31 -3.76,13.47s-5.6,4.59 -10.36,4.3s-8.01,-2.14 -9.75,-5.53s-2.44,-8.01 -2.08,-13.83c0.35,-5.76 1.6,-10.2 3.75,-13.32zm16.51,7.7c-0.24,-1.88 -0.85,-3.45 -1.84,-4.7c-0.99,-1.25 -2.54,-1.93 -4.63,-2.06c-2.1,-0.13 -3.71,0.37 -4.85,1.48c-1.14,1.12 -1.94,2.59 -2.4,4.44s-0.78,4.11 -0.94,6.8c-0.17,2.79 -0.15,5.15 0.07,7.07c0.22,1.92 0.83,3.49 1.84,4.72c1.01,1.23 2.56,1.91 4.66,2.04c2.1,0.13 3.72,-0.36 4.87,-1.45c1.15,-1.1 1.95,-2.58 2.4,-4.46c0.45,-1.88 0.76,-4.21 0.93,-7.01c0.17,-2.7 0.13,-4.98 -0.1,-6.87l-0.01,0z" class="cls-1"/><path fill="#ff3600" d="m1887.67734,471.67555c3.32,-2.62 5.95,-4.77 7.88,-6.47c1.93,-1.7 3.56,-3.48 4.88,-5.36c1.32,-1.87 2.03,-3.78 2.12,-5.71c0.09,-2 -0.31,-3.58 -1.21,-4.76c-0.9,-1.17 -2.36,-1.81 -4.39,-1.9c-1.96,-0.09 -3.52,0.46 -4.66,1.66c-1.14,1.2 -1.79,2.85 -1.96,4.94l-5.49,-0.25c0.28,-3.79 1.55,-6.64 3.82,-8.56c2.27,-1.91 5.09,-2.79 8.46,-2.64c3.63,0.17 6.42,1.3 8.38,3.39c1.96,2.09 2.86,4.8 2.7,8.13c-0.11,2.4 -0.83,4.68 -2.14,6.83c-1.32,2.16 -2.86,4.07 -4.62,5.74c-1.76,1.67 -4,3.59 -6.7,5.77l-2.34,1.89l15.83,0.73l-0.22,4.75l-24.27,-1.12l0.19,-4.15l3.74,-2.93l0,0.02z" class="cls-1"/><path fill="#ff3600" d="m1917.48734,445.98555c2.24,-1.66 5.06,-2.44 8.45,-2.33c2.33,0.08 4.33,0.56 6.01,1.45c1.67,0.89 2.92,2.06 3.74,3.52c0.82,1.46 1.2,3.09 1.14,4.89c-0.07,2.07 -0.67,3.81 -1.82,5.24c-1.15,1.43 -2.5,2.37 -4.04,2.82l0,0.2c1.94,0.66 3.44,1.8 4.48,3.42c1.05,1.62 1.53,3.66 1.45,6.12c-0.06,1.97 -0.57,3.7 -1.52,5.2c-0.95,1.5 -2.32,2.67 -4.12,3.49c-1.79,0.83 -3.92,1.2 -6.39,1.12c-3.6,-0.12 -6.53,-1.14 -8.78,-3.06c-2.26,-1.92 -3.41,-4.62 -3.46,-8.09l5.5,0.18c0.08,1.77 0.71,3.23 1.91,4.39c1.2,1.16 2.84,1.77 4.94,1.84c2.03,0.07 3.62,-0.44 4.75,-1.52c1.14,-1.08 1.73,-2.5 1.79,-4.27c0.08,-2.33 -0.61,-4.01 -2.06,-5.04c-1.45,-1.03 -3.71,-1.6 -6.77,-1.7l-1.3,-0.04l0.15,-4.7l1.35,0.04c2.7,0.05 4.77,-0.33 6.21,-1.15c1.44,-0.82 2.2,-2.16 2.26,-4.03c0.05,-1.6 -0.42,-2.89 -1.43,-3.87c-1,-0.98 -2.45,-1.5 -4.35,-1.57c-1.87,-0.06 -3.33,0.37 -4.39,1.28c-1.06,0.92 -1.72,2.07 -1.96,3.46l-5.55,-0.18c0.3,-3.09 1.57,-5.47 3.81,-7.13l0,0.02z" class="cls-1"/><path fill="#ff3600" d="m2075.58734,457.39555l-1.32,8.75l6.59,-0.4l0.3,4.99l-7.64,0.46l-1.44,9.35l-5.44,0.33l1.44,-9.35l-9.78,0.59l-1.44,9.35l-5.44,0.33l1.44,-9.35l-7.74,0.47l-0.3,-4.99l8.78,-0.53l1.33,-8.75l-7.69,0.46l-0.3,-4.99l8.73,-0.53l1.4,-9.2l5.44,-0.33l-1.4,9.2l9.78,-0.59l1.4,-9.2l5.44,-0.33l-1.4,9.2l6.64,-0.4l0.3,4.99l-7.69,0.46l0.01,0.01zm-5.44,0.33l-9.78,0.59l-1.32,8.75l9.78,-0.59l1.32,-8.75z" class="cls-1"/><path d="m2112.79734,468.76555l-14.41,2.01l-1.49,7.38l-5.89,0.82l7.51,-36.19l6.54,-0.91l17.15,32.74l-5.94,0.83l-3.46,-6.69l-0.01,0.01zm-2.23,-4.38l-7.83,-15.21l-3.41,16.78l11.24,-1.57z"/><path d="m2146.35734,469.94555l-10.52,-12.11l-4.27,0.83l2.67,13.64l-5.59,1.09l-6.66,-34.11l11.78,-2.3c2.62,-0.51 4.92,-0.49 6.92,0.07c1.99,0.56 3.59,1.52 4.79,2.88c1.2,1.36 1.99,2.99 2.36,4.89c0.43,2.23 0.18,4.37 -0.75,6.44s-2.68,3.69 -5.24,4.87l11.2,12.48l-6.67,1.3l-0.02,0.03zm-15.66,-15.74l6.18,-1.21c2.09,-0.41 3.57,-1.24 4.43,-2.5c0.86,-1.25 1.12,-2.77 0.77,-4.53c-0.34,-1.77 -1.14,-3.05 -2.38,-3.84c-1.24,-0.79 -2.93,-0.98 -5.05,-0.57l-6.18,1.21l2.23,11.43l0,0.01z"/><path d="m2179.12734,462.48555l-16.72,-11.96l3.65,15.12l-5.54,1.34l-8.15,-33.78l5.54,-1.34l3.72,15.41l9.41,-18.57l6.95,-1.68l-10.6,20.46l18.99,13.27l-7.24,1.75l-0.01,-0.02z"/><path d="m2209.58734,446.87555l-14,3.96l-0.47,7.51l-5.73,1.62l2.52,-36.88l6.35,-1.79l21.45,30.1l-5.77,1.63l-4.34,-6.15l-0.01,0zm-2.8,-4.04l-9.83,-14l-1.09,17.09l10.92,-3.09z"/><path d="m2234.66734,412.36555c3.08,0.5 5.75,1.78 8.01,3.83c2.25,2.06 3.92,4.77 5,8.13s1.3,6.52 0.65,9.45c-0.65,2.94 -2.09,5.49 -4.31,7.66c-2.23,2.17 -5.1,3.82 -8.62,4.95l-10.81,3.47l-10.63,-33.08l10.81,-3.47c3.52,-1.13 6.83,-1.45 9.91,-0.95l-0.01,0.01zm7.19,23.61c1.39,-2.76 1.47,-6.04 0.25,-9.85c-1.23,-3.84 -3.23,-6.51 -5.99,-8c-2.76,-1.5 -6.07,-1.62 -9.94,-0.38l-5.38,1.73l7.78,24.23l5.38,-1.73c3.87,-1.24 6.5,-3.24 7.89,-6l0.01,0z"/><path d="m2252.11734,404.18555l11.35,32.84l-5.39,1.86l-11.35,-32.84l5.39,-1.86z"/><path d="m2287.63734,420.75555l-13.65,5.03l0.11,7.53l-5.58,2.06l-0.34,-36.96l6.19,-2.28l23.71,28.36l-5.63,2.07l-4.8,-5.8l-0.01,-0.01zm-3.11,-3.81l-10.88,-13.2l0.23,17.12l10.65,-3.92z"/><path d="m2329.39734,412.03555l-5.29,2.11l-25.54,-17.75l9.61,24.1l-5.29,2.11l-12.89,-32.33l5.29,-2.11l25.52,17.71l-9.59,-24.06l5.29,-2.11l12.89,32.33z"/><path fill="#ff3600" d="m2400.33734,355.54555l1.98,8.62l5.98,-2.79l2.11,4.53l-6.93,3.23l2.09,9.23l-4.94,2.3l-2.09,-9.23l-8.88,4.14l2.09,9.23l-4.94,2.3l-2.09,-9.23l-7.03,3.27l-2.11,-4.53l7.98,-3.72l-1.98,-8.62l-6.98,3.25l-2.11,-4.53l7.93,-3.7l-2.08,-9.07l4.94,-2.3l2.08,9.07l8.88,-4.14l-2.08,-9.07l4.94,-2.3l2.08,9.07l6.03,-2.81l2.11,4.53l-6.98,3.25l0,0.02zm-4.94,2.3l-8.88,4.14l1.98,8.62l8.88,-4.14l-1.98,-8.62z" class="cls-1"/><path d="m2412.92734,336.33555l15.14,31.28l-5.13,2.48l-15.14,-31.28l5.13,-2.48z"/><path d="m2460.28734,351.65555l-5.1,2.55l-26.93,-15.56l11.59,23.22l-5.1,2.54l-15.54,-31.14l5.1,-2.54l26.91,15.52l-11.57,-23.17l5.1,-2.55l15.54,31.14l0,-0.01z"/><path d="m2470.81734,307.10555l2.14,4.13l-8.21,4.25l13.84,26.73l-5.06,2.62l-13.84,-26.73l-8.26,4.28l-2.14,-4.13l21.54,-11.15l-0.01,0z"/><path d="m2496.95734,330.40555c-3.11,-0.05 -6.01,-0.9 -8.68,-2.55c-2.68,-1.65 -4.82,-3.97 -6.43,-6.96c-1.61,-3 -2.35,-6.06 -2.23,-9.19c0.12,-3.13 1.02,-6 2.7,-8.62c1.68,-2.62 3.94,-4.69 6.79,-6.22c2.88,-1.54 5.87,-2.29 8.98,-2.23c3.11,0.05 5.99,0.9 8.65,2.54c2.66,1.64 4.79,3.96 6.39,6.96c1.61,3 2.36,6.06 2.26,9.2c-0.1,3.13 -0.98,6.01 -2.66,8.63c-1.68,2.62 -3.96,4.7 -6.84,6.25c-2.85,1.53 -5.83,2.26 -8.94,2.21l0.01,-0.02zm11.28,-10.87c1.09,-1.78 1.62,-3.76 1.6,-5.96s-0.64,-4.43 -1.86,-6.69c-1.21,-2.26 -2.72,-4 -4.53,-5.23s-3.75,-1.87 -5.83,-1.93c-2.07,-0.06 -4.13,0.45 -6.15,1.54c-2.03,1.09 -3.59,2.51 -4.69,4.27c-1.1,1.76 -1.64,3.73 -1.62,5.92c0.02,2.19 0.63,4.41 1.84,6.67c1.21,2.26 2.73,4.01 4.54,5.25s3.77,1.89 5.85,1.97c2.08,0.08 4.14,-0.43 6.17,-1.52c2.03,-1.09 3.59,-2.52 4.68,-4.29z"/><path fill="#ff3600" d="m2528.98734,275.54555l2.25,4.07l-8.09,4.48l14.58,26.33l-4.99,2.76l-14.58,-26.33l-8.14,4.5l-2.25,-4.07l21.22,-11.75l0,0.01z" class="cls-1"/><path fill="#ff3600" d="m2557.68734,259.25555l17.19,30.2l-4.95,2.82l-7.52,-13.21l-14.21,8.09l7.52,13.21l-4.95,2.82l-17.19,-30.2l4.95,-2.82l7.37,12.95l14.21,-8.09l-7.37,-12.95l4.95,-2.82z" class="cls-1"/><path fill="#ff3600" d="m2570.74734,256.88555l5.2,8.77l10.32,-6.12l2.37,4l-10.32,6.12l5.43,9.16l11.61,-6.88l2.37,4l-16.52,9.79l-17.75,-29.93l16.52,-9.79l2.37,4l-11.61,6.88l0.01,0z" class="cls-1"/><path d="m2603.02734,232.05555l2.42,3.97l-12.6,7.67l5.33,8.75l9.82,-5.98l2.42,3.97l-9.82,5.98l7.91,12.98l-4.87,2.96l-18.08,-29.68l17.46,-10.64l0.01,0.02z"/><path d="m2611.93734,226.52555l11.73,18.79c1.39,2.23 3.03,3.55 4.91,3.95c1.88,0.4 3.87,-0.05 5.96,-1.36c2.12,-1.32 3.42,-2.92 3.88,-4.78c0.47,-1.86 0,-3.91 -1.39,-6.15l-11.73,-18.79l4.83,-3.02l11.68,18.71c1.5,2.4 2.25,4.77 2.24,7.09c0,2.32 -0.63,4.44 -1.87,6.35c-1.24,1.92 -2.92,3.53 -5.04,4.86c-2.12,1.32 -4.31,2.12 -6.56,2.38s-4.41,-0.12 -6.47,-1.15c-2.06,-1.03 -3.84,-2.75 -5.34,-5.15l-11.68,-18.71l4.84,-3.02l0.01,0z"/><path d="m2654.98734,199.35555l2.5,3.92l-7.8,4.97l16.17,25.39l-4.81,3.06l-16.17,-25.39l-7.84,5l-2.5,-3.92l20.45,-13.03z"/><path d="m2664.29734,193.35555l12.04,18.59c1.43,2.21 3.09,3.5 4.98,3.87c1.89,0.37 3.86,-0.12 5.93,-1.46c2.1,-1.36 3.37,-2.97 3.8,-4.84s-0.06,-3.91 -1.49,-6.12l-12.04,-18.59l4.79,-3.1l11.98,18.51c1.54,2.38 2.33,4.73 2.36,7.05c0.03,2.32 -0.55,4.45 -1.76,6.38c-1.21,1.93 -2.86,3.58 -4.96,4.94s-4.27,2.19 -6.52,2.49s-4.41,-0.04 -6.48,-1.04s-3.88,-2.69 -5.42,-5.07l-11.98,-18.51l4.79,-3.1l-0.02,0z"/><path d="m2722.43734,196.93555l-14.32,-7.23l-3.64,2.39l7.63,11.62l-4.76,3.13l-19.08,-29.04l10.03,-6.59c2.23,-1.46 4.37,-2.31 6.43,-2.55c2.06,-0.24 3.9,0.05 5.53,0.86c1.63,0.81 2.97,2.02 4.03,3.63c1.24,1.9 1.82,3.98 1.74,6.25s-1.09,4.43 -3,6.49l15.09,7.31l-5.68,3.73zm-20.45,-8.64l5.27,-3.46c1.78,-1.17 2.83,-2.5 3.15,-3.99c0.32,-1.49 -0.01,-2.98 -1,-4.49s-2.21,-2.39 -3.66,-2.65c-1.45,-0.26 -3.08,0.2 -4.89,1.39l-5.27,3.46l6.4,9.74z"/><path d="m2721.79734,161.21555l5.64,8.5l10,-6.64l2.57,3.87l-10,6.64l5.89,8.87l11.25,-7.47l2.57,3.87l-16,10.62l-19.25,-28.99l16,-10.62l2.57,3.87l-11.25,7.47l0.01,0.01z"/></g></g></g></g></svg>